<svg id="_4" data-name="+4" xmlns="http://www.w3.org/2000/svg" xmlns:xlink="http://www.w3.org/1999/xlink" width="38.031" height="32.208" viewBox="0 0 38.031 32.208">
  <defs>
    <clipPath id="clip-path">
      <rect id="Rectangle_168" data-name="Rectangle 168" width="38.031" height="32.208" fill="#fff"/>
    </clipPath>
  </defs>
  <g id="Group_582" data-name="Group 582" transform="translate(0 0)">
    <g id="Group_581" data-name="Group 581" clip-path="url(#clip-path)">
      <path id="Path_227" data-name="Path 227" d="M20.533,62.774a1.5,1.5,0,0,0,.128.237,1.387,1.387,0,0,0,.17.207,1.123,1.123,0,0,0,.207.17,1.607,1.607,0,0,0,.237.128,1.443,1.443,0,0,0,.256.076,1.323,1.323,0,0,0,.535,0,1.443,1.443,0,0,0,.256-.076,1.8,1.8,0,0,0,.237-.128,1.382,1.382,0,0,0,.377-.377,1.482,1.482,0,0,0,.125-.237,1.231,1.231,0,0,0,.079-.256,1.319,1.319,0,0,0,.027-.268,1.375,1.375,0,0,0-.608-1.138,1.8,1.8,0,0,0-.237-.128,1.442,1.442,0,0,0-.256-.076A1.369,1.369,0,0,0,20.43,62.25a1.319,1.319,0,0,0,.027.268,1.247,1.247,0,0,0,.076.256" transform="translate(-14.215 -42.362)" fill="#fff"/>
      <path id="Path_228" data-name="Path 228" d="M46.358,63.617a1.32,1.32,0,0,0,.268-.027,1.443,1.443,0,0,0,.256-.076,1.8,1.8,0,0,0,.237-.128,1.123,1.123,0,0,0,.207-.17,1.366,1.366,0,0,0,0-1.932l0,0a1.122,1.122,0,0,0-.207-.17,1.8,1.8,0,0,0-.237-.128,1.442,1.442,0,0,0-.256-.076,1.369,1.369,0,1,0-.268,2.71" transform="translate(-31.3 -42.36)" fill="#fff"/>
      <path id="Path_229" data-name="Path 229" d="M69.676,62.772a1.483,1.483,0,0,0,.125.237,1.386,1.386,0,0,0,.377.377,1.8,1.8,0,0,0,.237.128,1.444,1.444,0,0,0,.256.076,1.322,1.322,0,0,0,.535,0,1.444,1.444,0,0,0,.256-.076,1.8,1.8,0,0,0,.237-.128,1.375,1.375,0,0,0,.608-1.138,1.319,1.319,0,0,0-.027-.268,1.441,1.441,0,0,0-.076-.256,1.8,1.8,0,0,0-.128-.237,1.383,1.383,0,0,0-.377-.377,1.485,1.485,0,0,0-.237-.125,1.232,1.232,0,0,0-.256-.079,1.322,1.322,0,0,0-.535,0,1.232,1.232,0,0,0-.256.079,1.484,1.484,0,0,0-.237.125,1.387,1.387,0,0,0-.377.377,1.483,1.483,0,0,0-.125.237,1.229,1.229,0,0,0-.079.256,1.322,1.322,0,0,0,0,.535,1.229,1.229,0,0,0,.079.256" transform="translate(-48.407 -42.361)" fill="#fff"/>
      <path id="Path_230" data-name="Path 230" d="M21.8,81.618a1.321,1.321,0,0,0,.268-.027,1.444,1.444,0,0,0,.256-.076,1.8,1.8,0,0,0,.237-.128,1.375,1.375,0,0,0,.608-1.138,1.319,1.319,0,0,0-.027-.268,1.231,1.231,0,0,0-.079-.256,1.483,1.483,0,0,0-.125-.237,1.387,1.387,0,0,0-.377-.377,1.8,1.8,0,0,0-.237-.128,1.443,1.443,0,0,0-.256-.076,1.322,1.322,0,0,0-.535,0,1.443,1.443,0,0,0-.256.076,1.606,1.606,0,0,0-.237.128,1.124,1.124,0,0,0-.207.17,1.388,1.388,0,0,0-.17.207,1.5,1.5,0,0,0-.128.237,1.247,1.247,0,0,0-.076.256,1.319,1.319,0,0,0-.027.268A1.372,1.372,0,0,0,21.8,81.618" transform="translate(-14.215 -54.885)" fill="#fff"/>
      <path id="Path_231" data-name="Path 231" d="M45.1,80.772a1.8,1.8,0,0,0,.128.237,1.375,1.375,0,0,0,1.138.608,1.319,1.319,0,0,0,.268-.027,1.23,1.23,0,0,0,.256-.079,1.483,1.483,0,0,0,.237-.125,1.125,1.125,0,0,0,.207-.17,1.388,1.388,0,0,0,.17-.207,1.48,1.48,0,0,0,.125-.237,1.231,1.231,0,0,0,.079-.256,1.32,1.32,0,0,0,.027-.268,1.369,1.369,0,1,0-2.738,0,1.319,1.319,0,0,0,.027.268,1.247,1.247,0,0,0,.076.256" transform="translate(-31.311 -54.885)" fill="#fff"/>
      <path id="Path_232" data-name="Path 232" d="M69.676,80.772a1.482,1.482,0,0,0,.125.237,1.387,1.387,0,0,0,.377.377,1.482,1.482,0,0,0,.237.125,1.233,1.233,0,0,0,.256.079,1.323,1.323,0,0,0,.535,0,1.233,1.233,0,0,0,.256-.079,1.483,1.483,0,0,0,.237-.125,1.387,1.387,0,0,0,.377-.377,1.8,1.8,0,0,0,.128-.237,1.441,1.441,0,0,0,.076-.256,1.322,1.322,0,0,0,0-.535,1.247,1.247,0,0,0-.076-.256,1.8,1.8,0,0,0-.128-.237,1.391,1.391,0,0,0-.377-.377,1.487,1.487,0,0,0-.237-.125,1.232,1.232,0,0,0-.256-.079,1.322,1.322,0,0,0-.535,0,1.232,1.232,0,0,0-.256.079,1.486,1.486,0,0,0-.237.125,1.391,1.391,0,0,0-.377.377,1.483,1.483,0,0,0-.125.237,1.229,1.229,0,0,0-.079.256,1.322,1.322,0,0,0,0,.535,1.229,1.229,0,0,0,.079.256" transform="translate(-48.407 -54.885)" fill="#fff"/>
      <path id="Path_233" data-name="Path 233" d="M27.377,26.641v6.552a1.065,1.065,0,0,1-1.065,1.065H3.8a1.065,1.065,0,0,1-1.065-1.065V20.569h11.19a13.62,13.62,0,0,1-1.38-2.738H2.738V13.42A1.065,1.065,0,0,1,3.8,12.355H5.475v1.369a1.369,1.369,0,0,0,2.738,0V12.355h3.514a13.664,13.664,0,0,1,.427-2.738H8.213V8.249a1.369,1.369,0,0,0-2.738,0V9.618H3.8A3.808,3.808,0,0,0,0,13.42V33.193a3.808,3.808,0,0,0,3.8,3.8h22.51a3.808,3.808,0,0,0,3.8-3.8V25.95a13.609,13.609,0,0,1-2.738.691" transform="translate(0 -4.787)" fill="#fff"/>
      <path id="Path_234" data-name="Path 234" d="M89.241,13.343H81.162V10.8L88.71,0h3.762V10.527H94.5v2.816H92.472v3.278H89.241Zm.208-2.816V3.463l-4.732,7.064Z" transform="translate(-56.473 -0.001)" fill="#fff"/>
      <path id="Path_235" data-name="Path 235" d="M60.815,10.595v3.241h3.157v2.038H60.815v3.241H58.61V15.874H55.452V13.835H58.61V10.595Z" transform="translate(-38.584 -7.372)" fill="#fff"/>
    </g>
  </g>
</svg>
