<svg xmlns="http://www.w3.org/2000/svg" width="22.738" height="27.943" viewBox="0 0 22.738 27.943">
  <g id="apple" transform="translate(0 0)">
    <path id="Path_312" data-name="Path 312" d="M48.4,176.252a6.353,6.353,0,0,1,3.025-5.329,6.506,6.506,0,0,0-5.122-2.769c-2.156-.226-4.244,1.284-5.343,1.284-1.119,0-2.81-1.267-4.632-1.229a6.822,6.822,0,0,0-5.74,3.5c-2.482,4.3-.63,10.612,1.748,14.086,1.19,1.7,2.58,3.6,4.4,3.533,1.78-.073,2.445-1.134,4.595-1.134,2.128,0,2.751,1.134,4.609,1.092,1.909-.031,3.113-1.708,4.261-3.425a14.136,14.136,0,0,0,1.949-3.969,6.136,6.136,0,0,1-3.748-5.639" transform="translate(-29.407 -161.387)" fill="#231f20"/>
    <path id="Path_313" data-name="Path 313" d="M65,153.888a6.252,6.252,0,0,0,1.43-4.483,6.36,6.36,0,0,0-4.116,2.129,5.95,5.95,0,0,0-1.468,4.319A5.262,5.262,0,0,0,65,153.888" transform="translate(-49.516 -149.405)" fill="#231f20"/>
  </g>
</svg>
