<svg xmlns="http://www.w3.org/2000/svg" width="19.061" height="16.524" viewBox="0 0 19.061 16.524">
  <path id="blog" d="M6.412,7.319a.865.865,0,0,0-1.05.768V9.713a.8.8,0,0,0,.622.71,1.582,1.582,0,0,1,1.165,1.452,1.681,1.681,0,0,1-1.787,1.549,1.681,1.681,0,0,1-1.787-1.549v-8A.838.838,0,0,0,2.681,3.1H.894A.838.838,0,0,0,0,3.872v8c0,2.888,3.057,5.17,6.516,4.541a5.035,5.035,0,0,0,4.085-3.54C11.249,10.2,9.223,7.8,6.412,7.319ZM7.782,0a.569.569,0,0,0-.633.516v1.02a.549.549,0,0,0,.559.513c4.818.226,8.691,3.615,8.97,7.794a.565.565,0,0,0,.592.484h1.2a.558.558,0,0,0,.6-.549C18.744,4.511,13.859.277,7.782,0Zm.011,3.1a.572.572,0,0,0-.644.52V4.653a.552.552,0,0,0,.551.513,5.6,5.6,0,0,1,5.4,4.686.571.571,0,0,0,.592.474h1.2a.56.56,0,0,0,.6-.558c-.313-3.553-3.593-6.4-7.693-6.671Z" transform="translate(0 0.002)" fill="#3f536c"/>
</svg>
