<svg xmlns="http://www.w3.org/2000/svg" width="18.567" height="18.601" viewBox="0 0 18.567 18.601">
  <g id="cagrimerkezi" transform="translate(-904.399 -4813.838)">
    <path id="Icon_feather-phone-call" data-name="Icon feather-phone-call" d="M13.885,4.814a4.142,4.142,0,0,1,3.272,3.272M13.885,1.5a7.455,7.455,0,0,1,6.586,6.577m-.828,6.61v2.485a1.657,1.657,0,0,1-1.806,1.657,16.394,16.394,0,0,1-7.149-2.543,16.153,16.153,0,0,1-4.97-4.97A16.394,16.394,0,0,1,3.175,4.134,1.657,1.657,0,0,1,4.823,2.328H7.308A1.657,1.657,0,0,1,8.965,3.753a10.636,10.636,0,0,0,.58,2.328,1.657,1.657,0,0,1-.373,1.748L8.12,8.881a13.254,13.254,0,0,0,4.97,4.97L14.142,12.8a1.657,1.657,0,0,1,1.748-.373,10.636,10.636,0,0,0,2.328.58A1.657,1.657,0,0,1,19.643,14.688Z" transform="translate(901.832 4813)" fill="none" stroke="#6f7e8f" stroke-linecap="round" stroke-linejoin="round" stroke-width="1.2"/>
  </g>
</svg>
