<svg xmlns="http://www.w3.org/2000/svg" width="20.304" height="20.304" viewBox="0 0 20.304 20.304">
  <g id="checkbox-dolu" transform="translate(-507 -2971)">
    <path id="Path_67" data-name="Path 67" d="M23.112,4.5H6.192A1.69,1.69,0,0,0,4.5,6.192v16.92A1.69,1.69,0,0,0,6.192,24.8h16.92A1.69,1.69,0,0,0,24.8,23.112V6.192A1.69,1.69,0,0,0,23.112,4.5Zm.212,18.4a.424.424,0,0,1-.423.423H6.4a.424.424,0,0,1-.423-.423V6.4A.424.424,0,0,1,6.4,5.981H22.9a.424.424,0,0,1,.423.423Z" transform="translate(502.5 2966.5)" fill="#2a5ab3"/>
    <path id="Path_68" data-name="Path 68" d="M21.831,13.227,20.9,12.27a.2.2,0,0,0-.148-.063h0a.192.192,0,0,0-.148.063l-6.451,6.5L11.805,16.42a.2.2,0,0,0-.3,0l-.941.941a.211.211,0,0,0,0,.3l2.961,2.961a.936.936,0,0,0,.619.3.981.981,0,0,0,.613-.291h.005l7.069-7.106A.226.226,0,0,0,21.831,13.227Z" transform="translate(501.096 2964.589)" fill="#2a5ab3"/>
  </g>
</svg>
