<svg xmlns="http://www.w3.org/2000/svg" xmlns:xlink="http://www.w3.org/1999/xlink" width="151.079" height="16.693" viewBox="0 0 151.079 16.693">
  <defs>
    <clipPath id="clip-path">
      <rect id="Rectangle_237" data-name="Rectangle 237" width="151.079" height="16.693" transform="translate(0 0)" fill="#3f536c"/>
    </clipPath>
  </defs>
  <g id="footer-logo" transform="translate(0 0)">
    <g id="Group_827" data-name="Group 827" transform="translate(0 0)" clip-path="url(#clip-path)">
      <path id="Path_332" data-name="Path 332" d="M38.511,5.672a4.645,4.645,0,0,0-3.4-1.4H33.525V2.626a1.549,1.549,0,0,0-.473-1.135,1.6,1.6,0,0,0-2.27,0,1.549,1.549,0,0,0-.473,1.135V9.059a4.612,4.612,0,0,0,1.419,3.4,4.66,4.66,0,0,0,3.406,1.409,4.6,4.6,0,0,0,3.386-1.409,4.646,4.646,0,0,0,1.4-3.4,4.6,4.6,0,0,0-1.409-3.386M36.685,9.059a1.532,1.532,0,0,1-.463,1.126,1.589,1.589,0,0,1-2.7-1.126V7.488h1.608a1.551,1.551,0,0,1,1.57,1.57Z" transform="translate(-20.707 -0.696)" fill="#3f536c"/>
      <path id="Path_333" data-name="Path 333" d="M44.58.905h-.039a.9.9,0,0,0-1.81,0V2.912H44.58Z" transform="translate(-29.194 -0.001)" fill="#3f536c"/>
      <path id="Path_334" data-name="Path 334" d="M59.232,9.206a.918.918,0,0,0-1.3-1.3L56.517,9.364l1.3,1.3Z" transform="translate(-38.613 -5.221)" fill="#3f536c"/>
      <path id="Path_335" data-name="Path 335" d="M42.483,45.51h.039a.9.9,0,1,0,1.81,0V43.5H42.483Z" transform="translate(-29.025 -29.722)" fill="#3f536c"/>
      <path id="Path_336" data-name="Path 336" d="M64.486,23.633H62.479v1.81h2.007a.9.9,0,0,0,0-1.81" transform="translate(-42.686 -16.146)" fill="#3f536c"/>
      <path id="Path_337" data-name="Path 337" d="M57.815,35.679l-1.3,1.3,1.416,1.416a.918.918,0,0,0,1.3-1.3Z" transform="translate(-38.612 -24.376)" fill="#3f536c"/>
      <path id="Path_338" data-name="Path 338" d="M7.354,10.921H6.938A1.614,1.614,0,0,1,5.348,9.332V7.743H7.354A1.615,1.615,0,0,0,8.962,6.134,1.615,1.615,0,0,0,7.354,4.526H5.367V2.918a1.55,1.55,0,0,0-.473-1.135A1.55,1.55,0,0,0,3.759,1.31a1.581,1.581,0,0,0-1.145.473,1.532,1.532,0,0,0-.482,1.135V4.432H1.608A1.55,1.55,0,0,0,.473,4.9a1.6,1.6,0,0,0,0,2.27,1.549,1.549,0,0,0,1.135.473h.524V9.332a4.612,4.612,0,0,0,1.419,3.4,4.659,4.659,0,0,0,3.405,1.409h.4a1.608,1.608,0,0,0,0-3.216" transform="translate(0 -0.895)" fill="#3f536c"/>
      <path id="Path_339" data-name="Path 339" d="M98.336,12.7a1.6,1.6,0,0,1-1.59,1.589h-.393a4.772,4.772,0,0,1-4.768-4.749V3.2a1.515,1.515,0,0,1,.477-1.122,1.562,1.562,0,0,1,1.131-.467,1.531,1.531,0,0,1,1.122.467A1.531,1.531,0,0,1,94.783,3.2V4.785h1.963a1.6,1.6,0,0,1,1.59,1.59,1.6,1.6,0,0,1-1.59,1.589H94.764V9.535a1.6,1.6,0,0,0,1.571,1.571h.411a1.6,1.6,0,0,1,1.59,1.59" transform="translate(-62.571 -1.098)" fill="#3f536c"/>
      <path id="Path_340" data-name="Path 340" d="M122.821,19.591a1.594,1.594,0,0,1-1.589,1.589h-3.161a4.772,4.772,0,0,1-4.75-4.749,4.742,4.742,0,0,1,4.731-4.731,4.619,4.619,0,0,1,3.366,1.384,4.527,4.527,0,0,1,1.4,3.347Zm-3.179-3.16a1.493,1.493,0,0,0-.458-1.094,1.581,1.581,0,0,0-2.225,0,1.494,1.494,0,0,0-.458,1.094,1.514,1.514,0,0,0,.458,1.113,1.491,1.491,0,0,0,1.094.458h1.571Z" transform="translate(-77.422 -7.993)" fill="#3f536c"/>
      <path id="Path_341" data-name="Path 341" d="M155.058,12.7a1.6,1.6,0,0,1-1.59,1.589h-.393a4.772,4.772,0,0,1-4.768-4.749V3.2a1.515,1.515,0,0,1,.477-1.122,1.561,1.561,0,0,1,1.131-.467,1.532,1.532,0,0,1,1.122.467A1.533,1.533,0,0,1,151.5,3.2V4.785h1.963a1.6,1.6,0,0,1,1.59,1.59,1.6,1.6,0,0,1-1.59,1.589h-1.982V9.535a1.6,1.6,0,0,0,1.571,1.571h.411a1.6,1.6,0,0,1,1.59,1.59" transform="translate(-101.324 -1.098)" fill="#3f536c"/>
      <path id="Path_342" data-name="Path 342" d="M175.35,3.136a1.53,1.53,0,0,1-.467,1.122,1.531,1.531,0,0,1-1.122.468,1.561,1.561,0,0,1-1.131-.468,1.515,1.515,0,0,1-.477-1.122,1.529,1.529,0,0,1,.468-1.122,1.53,1.53,0,0,1,1.122-.468,1.562,1.562,0,0,1,1.131.468,1.516,1.516,0,0,1,.477,1.122m0,9.518a1.6,1.6,0,0,1-1.589,1.589,1.562,1.562,0,0,1-1.131-.467,1.515,1.515,0,0,1-.477-1.122V7.493A1.6,1.6,0,0,1,173.742,5.9a1.561,1.561,0,0,1,1.131.468,1.515,1.515,0,0,1,.477,1.121Z" transform="translate(-117.616 -1.057)" fill="#3f536c"/>
      <path id="Path_343" data-name="Path 343" d="M189.439,12.654a1.589,1.589,0,0,1-3.179,0V3.136a1.531,1.531,0,0,1,.467-1.122,1.58,1.58,0,0,1,2.244,0,1.53,1.53,0,0,1,.468,1.122Z" transform="translate(-127.254 -1.057)" fill="#3f536c"/>
      <path id="Path_344" data-name="Path 344" d="M209.452,9.5a4.591,4.591,0,0,1-1.383,3.356,4.545,4.545,0,0,1-3.347,1.393,4.605,4.605,0,0,1-3.365-1.393,4.557,4.557,0,0,1-1.4-3.356V3.137a1.53,1.53,0,0,1,.467-1.122,1.58,1.58,0,0,1,2.244,0,1.53,1.53,0,0,1,.468,1.122V4.764H204.7A4.741,4.741,0,0,1,209.452,9.5m-3.178,0a1.533,1.533,0,0,0-1.552-1.552h-1.589V9.5a1.561,1.561,0,1,0,3.123,0Z" transform="translate(-136.609 -1.058)" fill="#3f536c"/>
      <path id="Path_345" data-name="Path 345" d="M241.915,16.391a4.75,4.75,0,0,1-9.5,0V13.23a1.589,1.589,0,0,1,3.179,0v3.16a1.561,1.561,0,1,0,3.123,0V13.249a1.6,1.6,0,0,1,1.59-1.59,1.563,1.563,0,0,1,1.131.468,1.515,1.515,0,0,1,.477,1.122Z" transform="translate(-158.788 -7.953)" fill="#3f536c"/>
      <path id="Path_346" data-name="Path 346" d="M274.752,9.535a4.576,4.576,0,0,1-1.393,3.356,4.752,4.752,0,0,1-6.722,0,4.559,4.559,0,0,1-1.4-3.356,4.544,4.544,0,0,1,1.393-3.347A4.59,4.59,0,0,1,269.984,4.8h1.552V3.2A1.531,1.531,0,0,1,272,2.074a1.529,1.529,0,0,1,1.122-.467,1.6,1.6,0,0,1,1.141.467,1.5,1.5,0,0,1,.486,1.122Zm-3.2-1.552H270a1.545,1.545,0,0,0-1.122.458,1.479,1.479,0,0,0-.468,1.094,1.561,1.561,0,1,0,3.123,0Z" transform="translate(-181.21 -1.098)" fill="#3f536c"/>
      <path id="Path_347" data-name="Path 347" d="M307.61,16.391a4.749,4.749,0,0,1-9.5,0V13.23a1.59,1.59,0,0,1,3.179,0v3.16a1.6,1.6,0,0,0,1.57,1.571,1.492,1.492,0,0,0,1.094-.458,1.514,1.514,0,0,0,.458-1.113V13.249a1.6,1.6,0,0,1,1.59-1.59,1.563,1.563,0,0,1,1.131.468,1.514,1.514,0,0,1,.477,1.122Z" transform="translate(-203.671 -7.953)" fill="#3f536c"/>
      <path id="Path_348" data-name="Path 348" d="M338.975,13.23a1.6,1.6,0,0,1-1.589,1.589h-2.338a1.525,1.525,0,0,0-1.1.458,1.5,1.5,0,0,0-.467,1.113v3.16a1.6,1.6,0,0,1-1.589,1.589,1.56,1.56,0,0,1-1.131-.467,1.515,1.515,0,0,1-.477-1.122V16.39a4.756,4.756,0,0,1,4.749-4.75h2.337a1.563,1.563,0,0,1,1.131.468,1.515,1.515,0,0,1,.477,1.122" transform="translate(-225.649 -7.953)" fill="#3f536c"/>
      <path id="Path_349" data-name="Path 349" d="M353.6,33.181a1.6,1.6,0,0,1-1.59,1.589,1.562,1.562,0,0,1-1.131-.467,1.515,1.515,0,0,1-.477-1.122A1.6,1.6,0,0,1,352,31.591a1.561,1.561,0,0,1,1.131.467,1.515,1.515,0,0,1,.477,1.122" transform="translate(-239.4 -21.583)" fill="#3f536c"/>
      <path id="Path_350" data-name="Path 350" d="M372.167,19.59a1.6,1.6,0,0,1-1.59,1.589h-3.066a4.772,4.772,0,0,1-4.768-4.749,4.544,4.544,0,0,1,1.393-3.347,4.59,4.59,0,0,1,3.356-1.384h3.067a1.563,1.563,0,0,1,1.131.468,1.585,1.585,0,0,1-1.113,2.711h-3.066a1.547,1.547,0,0,0-1.122.458,1.479,1.479,0,0,0-.467,1.094A1.6,1.6,0,0,0,367.492,18h3.067a1.562,1.562,0,0,1,1.131.467,1.516,1.516,0,0,1,.477,1.122" transform="translate(-247.828 -7.993)" fill="#3f536c"/>
      <path id="Path_351" data-name="Path 351" d="M403.978,16.43a4.593,4.593,0,0,1-1.383,3.356,4.745,4.745,0,0,1-8.1-3.356,4.544,4.544,0,0,1,1.393-3.347,4.735,4.735,0,0,1,8.087,3.347m-3.179,0a1.564,1.564,0,1,0-.458,1.113,1.5,1.5,0,0,0,.458-1.113" transform="translate(-269.523 -7.993)" fill="#3f536c"/>
      <path id="Path_352" data-name="Path 352" d="M442.781,19.55a1.589,1.589,0,0,1-3.178,0V16.39a1.566,1.566,0,0,0-1.571-1.571,1.494,1.494,0,0,0-1.094.459,1.513,1.513,0,0,0-.458,1.112v3.141a1.6,1.6,0,0,1-2.73,1.141,1.53,1.53,0,0,1-.467-1.122V16.39a1.514,1.514,0,0,0-.458-1.112,1.493,1.493,0,0,0-1.094-.459,1.523,1.523,0,0,0-1.1.459,1.5,1.5,0,0,0-.468,1.112v3.141a1.6,1.6,0,0,1-1.589,1.589,1.561,1.561,0,0,1-1.131-.468,1.515,1.515,0,0,1-.477-1.122V16.39a4.74,4.74,0,0,1,7.909-3.534,4.5,4.5,0,0,1,3.142-1.216,4.607,4.607,0,0,1,3.366,1.393,4.559,4.559,0,0,1,1.4,3.356Z" transform="translate(-291.702 -7.953)" fill="#3f536c"/>
      <path id="Path_353" data-name="Path 353" d="M92.1,10.98h-.411a1.6,1.6,0,0,1-1.569-1.569V7.842H92.1a1.6,1.6,0,0,0,1.588-1.588A1.595,1.595,0,0,0,92.1,4.667H90.143V3.08a1.53,1.53,0,0,0-.467-1.121,1.529,1.529,0,0,0-1.121-.467,1.56,1.56,0,0,0-1.13.467,1.515,1.515,0,0,0-.476,1.121V4.574h-.517a1.6,1.6,0,0,0-1.588,1.588,1.595,1.595,0,0,0,1.588,1.587h.517V9.411a4.766,4.766,0,0,0,4.762,4.744H92.1a1.587,1.587,0,0,0,0-3.175" transform="translate(-57.966 -1.019)" fill="#3f536c"/>
      <path id="Path_354" data-name="Path 354" d="M149.051,10.98h-.411a1.6,1.6,0,0,1-1.569-1.569V7.842h1.98a1.6,1.6,0,0,0,1.588-1.588,1.595,1.595,0,0,0-1.588-1.587h-1.961V3.08a1.53,1.53,0,0,0-.467-1.121,1.529,1.529,0,0,0-1.121-.467,1.56,1.56,0,0,0-1.13.467A1.515,1.515,0,0,0,143.9,3.08V4.574h-.517a1.595,1.595,0,0,0-1.587,1.588,1.594,1.594,0,0,0,1.587,1.587h.517V9.411a4.766,4.766,0,0,0,4.762,4.744h.392a1.587,1.587,0,0,0,0-3.175" transform="translate(-96.873 -1.019)" fill="#3f536c"/>
    </g>
  </g>
</svg>
