<svg xmlns="http://www.w3.org/2000/svg" width="28.484" height="29.5" viewBox="0 0 28.484 29.5">
  <path id="giris" d="M48.652,39.125a5.089,5.089,0,1,1,5.089,5.089A5.089,5.089,0,0,1,48.652,39.125ZM53.741,32A7.125,7.125,0,0,0,49.6,44.921q-.591.206-1.165.472a13.782,13.782,0,0,0-4.47,3.334A15.48,15.48,0,0,0,41,53.675a16.66,16.66,0,0,0-.995,4.642A2.023,2.023,0,0,0,42,60.5H65.479a2.023,2.023,0,0,0,2-2.183,16.657,16.657,0,0,0-.995-4.642,15.481,15.481,0,0,0-2.962-4.948,13.783,13.783,0,0,0-4.47-3.334q-.573-.265-1.165-.472A7.125,7.125,0,0,0,53.741,32ZM49.286,47.241a10.513,10.513,0,0,1,8.91,0A11.747,11.747,0,0,1,62,50.085a13.445,13.445,0,0,1,2.57,4.3,14.624,14.624,0,0,1,.872,4.074s0,.005,0,.007H42.036s0,0,0-.007a14.625,14.625,0,0,1,.872-4.074,13.445,13.445,0,0,1,2.57-4.3A11.748,11.748,0,0,1,49.286,47.241Z" transform="translate(-39.499 -31.5)" fill="#3f536c" stroke="#3f536c" stroke-width="1"/>
</svg>
