<svg xmlns="http://www.w3.org/2000/svg" width="64.972" height="64.503" viewBox="0 0 64.972 64.503">
  <g id="Group_1369" data-name="Group 1369" transform="translate(-1233.329 -605.288)">
    <path id="Path_301" data-name="Path 301" d="M32.486,0,28.737,2.86,24.391,1.017l-2.916,3.7-4.67-.71-1.9,4.3-4.7.468-.764,4.638L5,15.03l.419,4.681L1.529,22.373,3.1,26.8,0,30.346l2.634,3.9-2.122,4.2,3.527,3.127L3.034,46.166l4.2,2.156.174,4.7,4.6,1.05,1.343,4.506,4.723-.122L20.5,62.484,25.047,61.2l3.359,3.3,4.08-2.37,4.08,2.37,3.359-3.3,4.544,1.286L46.9,58.453l4.723.122,1.343-4.506,4.6-1.05.174-4.7,4.2-2.156-1.005-4.592,3.527-3.127-2.122-4.2,2.634-3.9-3.1-3.542,1.576-4.43L59.55,19.711l.419-4.681-4.436-1.616-.765-4.638-4.7-.468-1.9-4.3-4.67.71-2.916-3.7L36.235,2.86Z" transform="translate(1233.329 605.288)" fill="#faca00"/>
    <text id="_10_İndirim" data-name="%10
İndirim" transform="translate(1235 617.291)" fill="#3f536c" font-size="12" font-family="Poppins-Medium, Poppins" font-weight="500"><tspan x="18" y="17">%</tspan><tspan y="17" font-size="16">10</tspan><tspan x="9" y="33">İndirim</tspan></text>
  </g>
</svg>
