<svg xmlns="http://www.w3.org/2000/svg" width="35" height="35" viewBox="0 0 35 35">
  <g id="Group_793" data-name="Group 793" transform="translate(-540.85 -3934.8)">
    <path id="Path_309" data-name="Path 309" d="M52.006,22.8h-15.3c-7.216,0-9.858,2.627-9.858,9.844v15.3c0,7.216,2.642,9.858,9.858,9.858h15.3c7.2,0,9.844-2.642,9.844-9.858v-15.3c0-7.216-2.627-9.844-9.844-9.844" transform="translate(514 3912)" fill="#c8102f"/>
    <path id="Path_310" data-name="Path 310" d="M45.818,51.88l-.408,1.039-.915,0,1.935-5.036.791,0,1.967,5.02-.943,0-.4-1.035Zm.321-.913,1.364-.006-.69-1.793Zm14.47-3.14.9,0,.016,5.028-.9,0Zm-3.523,4.131,2.473-.01,0,.911-3.361.014-.016-5.028,3.264-.014,0,.927-2.376.01,0,1.021,1.641-.007,0,.927-1.641.007Zm-2.57-4.106.943,0L53.93,52.9l-.763,0L52.144,49.6l-1,3.314-.74,0-1.574-5.037.971,0,1,3.463.988-3.471.74,0,1.024,3.463Zm-11.4.048.9,0,.009,2.849c0,1.44-.691,2.276-1.921,2.281-1.2.005-1.9-.814-1.908-2.234l-.009-2.875.9,0,.009,2.849c0,.848.36,1.3,1.017,1.295s1.011-.455,1.008-1.272Zm-5.081.021.9,0,.017,5.044-.9,0-.007-2.058-2.034.008.007,2.058-.9,0L35.1,47.934l.9,0,.006,2.027,2.034-.008ZM48.28,41.474c-3.13.013-5.664-2.852-5.675-6.382l.791,0c.01,3.032,2.2,5.484,4.882,5.473s4.855-2.482,4.846-5.514l.791,0c.012,3.525-2.517,6.416-5.633,6.429" transform="translate(510.072 3905.072)" fill="#fff"/>
  </g>
</svg>
