<svg xmlns="http://www.w3.org/2000/svg" width="30.134" height="37.033" viewBox="0 0 30.134 37.033">
  <g id="Group_794" data-name="Group 794" transform="translate(-543.407 -4061.405)">
    <path id="Path_312" data-name="Path 312" d="M54.574,178.894a8.42,8.42,0,0,1,4.009-7.062,8.622,8.622,0,0,0-6.788-3.67c-2.858-.3-5.624,1.7-7.081,1.7-1.483,0-3.725-1.679-6.138-1.629a9.041,9.041,0,0,0-7.608,4.64c-3.289,5.695-.835,14.064,2.316,18.668,1.577,2.254,3.419,4.773,5.829,4.683,2.359-.1,3.24-1.5,6.089-1.5,2.82,0,3.646,1.5,6.108,1.447,2.531-.041,4.126-2.264,5.647-4.54a18.734,18.734,0,0,0,2.584-5.261,8.132,8.132,0,0,1-4.967-7.473" transform="translate(514 3902.212)" fill="#231f20"/>
    <path id="Path_313" data-name="Path 313" d="M66.357,155.346a8.285,8.285,0,0,0,1.895-5.941,8.428,8.428,0,0,0-5.454,2.821,7.886,7.886,0,0,0-1.946,5.724,6.974,6.974,0,0,0,5.506-2.6" transform="translate(497.572 3912)" fill="#231f20"/>
  </g>
</svg>
