<svg id="Group_1279" data-name="Group 1279" xmlns="http://www.w3.org/2000/svg" width="22.054" height="22.208" viewBox="0 0 22.054 22.208">
  <path id="Path_32" data-name="Path 32" d="M11.863,17.3H2.4a1.127,1.127,0,0,1-1.123-1.123v-7.9H16.948v3.742a6.219,6.219,0,0,1,.638-.044,6.219,6.219,0,0,1,.638.044V4.864a2.4,2.4,0,0,0-2.4-2.4H14.7V.638a.638.638,0,0,0-1.277,0V2.465H9.75V.638a.638.638,0,0,0-1.277,0V2.465H4.8V.638a.638.638,0,1,0-1.277,0V2.465H2.4A2.4,2.4,0,0,0,0,4.864V16.177a2.4,2.4,0,0,0,2.4,2.4h9.508a5.151,5.151,0,0,1-.066-.836A2.806,2.806,0,0,1,11.863,17.3ZM1.277,4.864A1.127,1.127,0,0,1,2.4,3.742H3.522v.88a.638.638,0,1,0,1.277,0v-.88H8.474v.88a.638.638,0,0,0,1.277,0v-.88h3.676v.88a.638.638,0,1,0,1.277,0v-.88h1.123a1.127,1.127,0,0,1,1.123,1.123V7H1.277Z" fill="#6f7e90"/>
  <path id="Path_33" data-name="Path 33" d="M14.345,41.9a2.223,2.223,0,1,0,2.245,2.223A2.25,2.25,0,0,0,14.345,41.9Zm0,3.191a.958.958,0,0,1-.946-.968.947.947,0,1,1,1.893,0A.958.958,0,0,1,14.345,45.091Z" transform="translate(-9.437 -32.678)" fill="#6f7e90"/>
  <path id="Path_34" data-name="Path 34" d="M17.553,66.5H15.638a.638.638,0,0,0,0,1.277h1.915a.638.638,0,0,0,0-1.277Z" transform="translate(-11.698 -51.863)" fill="#6f7e90"/>
  <path id="Path_35" data-name="Path 35" d="M38.153,66.5H36.238a.638.638,0,0,0,0,1.277h1.915a.638.638,0,1,0,0-1.277Z" transform="translate(-27.764 -51.863)" fill="#6f7e90"/>
  <path id="Path_36" data-name="Path 36" d="M38.153,49.2H36.238a.638.638,0,0,0,0,1.277h1.915a.638.638,0,1,0,0-1.277Z" transform="translate(-27.764 -38.371)" fill="#6f7e90"/>
  <path id="Path_37" data-name="Path 37" d="M58.675,49.2H56.738a.638.638,0,0,0,0,1.277h1.915a.639.639,0,0,0,.638-.638A.62.62,0,0,0,58.675,49.2Z" transform="translate(-43.752 -38.371)" fill="#6f7e90"/>
  <path id="Path_38" data-name="Path 38" d="M64.068,60.3a4.468,4.468,0,1,0,4.468,4.468A4.471,4.471,0,0,0,64.068,60.3Zm0,7.659a3.191,3.191,0,1,1,3.191-3.191A3.194,3.194,0,0,1,64.068,67.959Z" transform="translate(-46.482 -47.028)" fill="#6f7e90"/>
  <path id="Path_39" data-name="Path 39" d="M73.252,74.046,71.8,75.5l-.44-.44a.638.638,0,0,0-.9.9l.88.88a.612.612,0,0,0,.462.176.71.71,0,0,0,.462-.176l1.915-1.915a.651.651,0,0,0,0-.9A.7.7,0,0,0,73.252,74.046Z" transform="translate(-54.807 -57.605)" fill="#6f7e90"/>
</svg>
