<svg id="Group_717" data-name="Group 717" xmlns="http://www.w3.org/2000/svg" xmlns:xlink="http://www.w3.org/1999/xlink" width="9.532" height="13.581" viewBox="0 0 9.532 13.581">
  <defs>
    <clipPath id="clip-path">
      <rect id="Rectangle_200" data-name="Rectangle 200" width="9.532" height="13.581" fill="#3f536c"/>
    </clipPath>
  </defs>
  <g id="Group_716" data-name="Group 716" transform="translate(0 0)" clip-path="url(#clip-path)">
    <path id="Path_287" data-name="Path 287" d="M9.092,2.2h-.98V1.534a.449.449,0,0,0-.455-.455H6.563V.455A.449.449,0,0,0,6.108,0H3.438a.458.458,0,0,0-.455.455v.611H1.889a.449.449,0,0,0-.455.455v.668H.455A.47.47,0,0,0,0,2.656V13.339a.237.237,0,0,0,.227.241H1.69a.237.237,0,0,0,.227-.241v-.4A1.4,1.4,0,0,1,3.3,11.521H6.236a1.407,1.407,0,0,1,1.378,1.421v.4a.237.237,0,0,0,.227.241H9.3a.237.237,0,0,0,.227-.241V2.671a.458.458,0,0,0-.44-.469m-4.773.426.27-.043c.014,0,.028-.014.043-.028l.114-.241c.028-.043.085-.043.1,0l.114.241c.014.014.028.028.043.028l.27.043c.043.014.071.071.028.1l-.2.185c-.014.014-.014.028-.014.057l.043.27a.056.056,0,0,1-.085.057L4.8,3.168a.043.043,0,0,0-.057,0L4.5,3.3a.056.056,0,0,1-.085-.057l.043-.27a.085.085,0,0,0-.014-.057l-.2-.185a.1.1,0,0,1,.071-.1M3.012,8.95a.255.255,0,0,1-.256.256H1.52a.255.255,0,0,1-.256-.256V7.714a.255.255,0,0,1,.256-.256H2.756a.255.255,0,0,1,.256.256Zm0-2.841a.255.255,0,0,1-.256.256H1.52a.255.255,0,0,1-.256-.256V4.873a.255.255,0,0,1,.256-.256H2.756a.255.255,0,0,1,.256.256ZM3.58,2.727l-.2.185c-.014.014-.014.028-.014.057l.043.27a.056.056,0,0,1-.085.057l-.241-.128a.043.043,0,0,0-.057,0L2.784,3.3A.056.056,0,0,1,2.7,3.239l.043-.27a.085.085,0,0,0-.014-.057l-.2-.185a.063.063,0,0,1,.028-.1l.27-.043c.014,0,.028-.014.043-.028l.114-.241c.028-.043.085-.043.1,0l.114.241c.014.014.028.028.043.028l.27.043c.085.014.1.071.071.1M5.625,8.95a.255.255,0,0,1-.256.256H4.134a.255.255,0,0,1-.256-.256V7.714a.255.255,0,0,1,.256-.256H5.37a.255.255,0,0,1,.256.256Zm0-2.841a.255.255,0,0,1-.256.256H4.134a.255.255,0,0,1-.256-.256V4.873a.255.255,0,0,1,.256-.256H5.37a.255.255,0,0,1,.256.256Zm.81-2.926-.241.128a.056.056,0,0,1-.085-.057l.043-.27a.085.085,0,0,0-.014-.057l-.2-.185a.063.063,0,0,1,.028-.1l.27-.043c.014,0,.028-.014.043-.028l.128-.241a.055.055,0,0,1,.1,0l.114.241c.014.014.028.028.043.028l.27.043c.043.014.071.071.028.1l-.2.185c-.014.014-.014.028-.014.057l.043.27a.056.056,0,0,1-.085.057l-.241-.128c.014-.014-.014-.014-.028,0M8.3,8.95a.255.255,0,0,1-.256.256H6.8a.255.255,0,0,1-.256-.256V7.714A.255.255,0,0,1,6.8,7.458H8.04a.255.255,0,0,1,.256.256Zm0-2.841a.255.255,0,0,1-.256.256H6.8a.255.255,0,0,1-.256-.256V4.873A.255.255,0,0,1,6.8,4.617H8.04a.255.255,0,0,1,.256.256Z" transform="translate(0 0)" fill="#3f536c"/>
  </g>
</svg>
