<svg xmlns="http://www.w3.org/2000/svg" width="26.409" height="26.409" viewBox="0 0 26.409 26.409">
  <g id="huawei" transform="translate(0)">
    <path id="Path_309" data-name="Path 309" d="M45.831,22.8H34.288c-5.445,0-7.438,1.983-7.438,7.427V41.771c0,5.445,1.993,7.438,7.438,7.438H45.831c5.434,0,7.427-1.993,7.427-7.438V30.227c0-5.445-1.983-7.427-7.427-7.427" transform="translate(-26.85 -22.8)" fill="#c8102f"/>
    <path id="Path_310" data-name="Path 310" d="M43.186,47.748l-.308.784-.691,0,1.46-3.8.6,0,1.484,3.788-.712,0-.3-.781Zm.242-.689,1.029,0L43.936,45.7ZM54.346,44.69l.68,0,.012,3.794-.68,0Zm-2.659,3.117,1.866-.008,0,.688L51.02,48.5,51.008,44.7l2.463-.01,0,.7L51.68,45.4l0,.771,1.238-.005,0,.7-1.238.005Zm-1.939-3.1.712,0-1.153,3.81-.576,0-.772-2.494-.756,2.5-.558,0-1.188-3.8.733,0,.751,2.613.745-2.619.558,0,.772,2.613Zm-8.6.036.68,0,.007,2.15c0,1.087-.521,1.717-1.449,1.721-.907,0-1.436-.614-1.439-1.685l-.007-2.169.68,0,.007,2.15c0,.64.272.979.767.977s.763-.343.761-.959Zm-3.834.016.68,0L38,48.563l-.68,0-.005-1.553-1.535.006.005,1.553-.68,0L35.1,44.77l.68,0,0,1.529,1.535-.006ZM45.044,39.9a4.571,4.571,0,0,1-4.282-4.815l.6,0a3.931,3.931,0,0,0,3.683,4.13A3.939,3.939,0,0,0,48.7,35.047l.6,0A4.591,4.591,0,0,1,45.044,39.9" transform="translate(-31.838 -31.034)" fill="#fff"/>
  </g>
</svg>
