<svg xmlns="http://www.w3.org/2000/svg" width="17.77" height="15.374" viewBox="0 0 17.77 15.374">
  <g id="Icon_feather-headphones" data-name="Icon feather-headphones" transform="translate(0.1 0.1)">
    <g id="Group_111" data-name="Group 111">
      <g id="Path_53" data-name="Path 53" transform="translate(-4.403 -6)" fill="#43526a" stroke-linecap="round">
        <path d="M 18.37873268127441 20.42530059814453 L 13.98628234863281 20.42530059814453 C 13.73852252960205 20.42530059814453 13.53696250915527 20.22374153137207 13.53696250915527 19.97598075866699 C 13.53696250915527 19.72823143005371 13.73852252960205 19.52667045593262 13.98628234863281 19.52667045593262 L 18.37873268127441 19.52667045593262 C 19.0117130279541 19.52667045593262 19.52667236328125 19.01171112060547 19.52667236328125 18.37873077392578 L 19.52667236328125 13.18765068054199 C 19.52667236328125 9.692300796508789 16.68300247192383 6.848630905151367 13.18765258789062 6.848630905151367 C 9.692302703857422 6.848630905151367 6.8486328125 9.692300796508789 6.8486328125 13.18765068054199 L 6.8486328125 16.74953079223633 C 6.8486328125 16.99728012084961 6.647072792053223 17.1988410949707 6.399312496185303 17.1988410949707 C 6.151562690734863 17.1988410949707 5.950002670288086 16.99728012084961 5.950002670288086 16.74953079223633 L 5.950002670288086 13.18765068054199 C 5.950002670288086 9.196800231933594 9.196802139282227 5.950000762939453 13.18765258789062 5.950000762939453 C 17.17850303649902 5.950000762939453 20.42530250549316 9.196800231933594 20.42530250549316 13.18765068054199 L 20.42530250549316 18.37873077392578 C 20.42530250549316 19.50720977783203 19.50721168518066 20.42530059814453 18.37873268127441 20.42530059814453 Z" stroke="none"/>
        <path d="M 18.37873268127441 20.37530136108398 C 19.48124313354492 20.37530136108398 20.37530326843262 19.48124122619629 20.37530326843262 18.37873077392578 L 20.37530326843262 13.18765068054199 C 20.37530326843262 9.218070983886719 17.1572322845459 6.000000476837158 13.18765258789062 6.000000476837158 C 9.218072891235352 6.000000476837158 6.000002384185791 9.218070983886719 6.000002384185791 13.18765068054199 L 6.000002384185791 16.74953079223633 C 6.000002384185791 16.96995162963867 6.178892612457275 17.14883995056152 6.399312496185303 17.14883995056152 C 6.61973237991333 17.14883995056152 6.798632621765137 16.96995162963867 6.798632621765137 16.74953079223633 L 6.798632621765137 13.18765068054199 C 6.798632621765137 9.658910751342773 9.658912658691406 6.798630714416504 13.18765258789062 6.798630714416504 C 16.71638298034668 6.798630714416504 19.57667350769043 9.658910751342773 19.57667350769043 13.18765068054199 L 19.57667350769043 18.37873077392578 C 19.57667350769043 19.04039001464844 19.04039192199707 19.5766716003418 18.37873268127441 19.5766716003418 L 13.98628234863281 19.5766716003418 C 13.76586246490479 19.5766716003418 13.58696269989014 19.75557136535645 13.58696269989014 19.97598075866699 C 13.58696269989014 20.1964111328125 13.76586246490479 20.37530136108398 13.98628234863281 20.37530136108398 L 18.37873268127441 20.37530136108398 M 18.37873268127441 20.47529983520508 L 13.98628234863281 20.47529983520508 C 13.71095275878906 20.47529983520508 13.48696231842041 20.25131034851074 13.48696231842041 19.97598075866699 C 13.48696231842041 19.70066070556641 13.71095275878906 19.47667121887207 13.98628234863281 19.47667121887207 L 18.37873268127441 19.47667121887207 C 18.9841423034668 19.47667121887207 19.4766731262207 18.98414039611816 19.4766731262207 18.37873077392578 L 19.4766731262207 13.18765068054199 C 19.4766731262207 9.719870567321777 16.65543174743652 6.898630619049072 13.18765258789062 6.898630619049072 C 9.71987247467041 6.898630619049072 6.898632526397705 9.719870567321777 6.898632526397705 13.18765068054199 L 6.898632526397705 16.74953079223633 C 6.898632526397705 17.02485084533691 6.674642562866211 17.24884033203125 6.399312496185303 17.24884033203125 C 6.123992443084717 17.24884033203125 5.900002479553223 17.02485084533691 5.900002479553223 16.74953079223633 L 5.900002479553223 13.18765068054199 C 5.900002479553223 9.169230461120605 9.169232368469238 5.90000057220459 13.18765258789062 5.90000057220459 C 17.2060718536377 5.90000057220459 20.47530174255371 9.169230461120605 20.47530174255371 13.18765068054199 L 20.47530174255371 18.37873077392578 C 20.47530174255371 19.53478050231934 19.53478240966797 20.47529983520508 18.37873268127441 20.47529983520508 Z" stroke="none" fill="#3f536c"/>
      </g>
      <g id="Path_54" data-name="Path 54" transform="translate(-4.403 -16.212)" fill="#43526a" stroke-linecap="round">
        <path d="M 7.197942733764648 28.64039993286133 C 6.509822845458984 28.64039993286133 5.950002670288086 28.08057975769043 5.950002670288086 27.39245986938477 L 5.950002670288086 24.19795036315918 C 5.950002670288086 23.50983047485352 6.509822845458984 22.95000076293945 7.197942733764648 22.95000076293945 C 7.886062622070312 22.95000076293945 8.445882797241211 23.50983047485352 8.445882797241211 24.19795036315918 L 8.445882797241211 27.39245986938477 C 8.445882797241211 28.08057975769043 7.886062622070312 28.64039993286133 7.197942733764648 28.64039993286133 Z M 7.197942733764648 23.84863090515137 C 7.005332946777344 23.84863090515137 6.8486328125 24.00533103942871 6.8486328125 24.19795036315918 L 6.8486328125 27.39245986938477 C 6.8486328125 27.58506965637207 7.005332946777344 27.74176979064941 7.197942733764648 27.74176979064941 C 7.390552520751953 27.74176979064941 7.547252655029297 27.58506965637207 7.547252655029297 27.39245986938477 L 7.547252655029297 24.19795036315918 C 7.547252655029297 24.00533103942871 7.390552520751953 23.84863090515137 7.197942733764648 23.84863090515137 Z" stroke="none"/>
        <path d="M 7.197942733764648 28.59040069580078 C 7.859602928161621 28.59040069580078 8.395882606506348 28.05412101745605 8.395882606506348 27.39245986938477 L 8.395882606506348 24.19795036315918 C 8.395882606506348 23.53627967834473 7.859602928161621 23 7.197942733764648 23 C 6.536282539367676 23 6.000002861022949 23.53627967834473 6.000002861022949 24.19795036315918 L 6.000002861022949 27.39245986938477 C 6.000002861022949 28.05412101745605 6.536282539367676 28.59040069580078 7.197942733764648 28.59040069580078 M 7.197942733764648 23.79862976074219 C 7.418362617492676 23.79862976074219 7.59725284576416 23.97751998901367 7.59725284576416 24.19795036315918 L 7.59725284576416 27.39245986938477 C 7.59725284576416 27.61288070678711 7.418362617492676 27.79177093505859 7.197942733764648 27.79177093505859 C 6.977522850036621 27.79177093505859 6.798632621765137 27.61288070678711 6.798632621765137 27.39245986938477 L 6.798632621765137 24.19795036315918 C 6.798632621765137 23.97751998901367 6.977522850036621 23.79862976074219 7.197942733764648 23.79862976074219 M 7.197942733764648 28.69040107727051 C 6.482252597808838 28.69040107727051 5.900002956390381 28.10815048217773 5.900002956390381 27.39245986938477 L 5.900002956390381 24.19795036315918 C 5.900002956390381 23.48225975036621 6.482252597808838 22.89999961853027 7.197942733764648 22.89999961853027 C 7.913632869720459 22.89999961853027 8.495882987976074 23.48225975036621 8.495882987976074 24.19795036315918 L 8.495882987976074 27.39245986938477 C 8.495882987976074 28.10815048217773 7.913632869720459 28.69040107727051 7.197942733764648 28.69040107727051 Z M 7.197942733764648 23.89863014221191 C 7.032902717590332 23.89863014221191 6.898632526397705 24.03289985656738 6.898632526397705 24.19795036315918 L 6.898632526397705 27.39245986938477 C 6.898632526397705 27.5575008392334 7.032902717590332 27.69177055358887 7.197942733764648 27.69177055358887 C 7.362982749938965 27.69177055358887 7.497252941131592 27.5575008392334 7.497252941131592 27.39245986938477 L 7.497252941131592 24.19795036315918 C 7.497252941131592 24.03289985656738 7.362982749938965 23.89863014221191 7.197942733764648 23.89863014221191 Z" stroke="none" fill="#3f536c"/>
      </g>
      <g id="Path_55" data-name="Path 55" transform="translate(-2 -17.413)" fill="#43526a" stroke-linecap="round">
        <path d="M 3.996572256088257 29.04314041137695 L 3.19794225692749 29.04314041137695 C 2.498162269592285 29.04314041137695 1.950002312660217 28.37746047973633 1.950002312660217 27.52766036987305 L 1.950002312660217 26.46548080444336 C 1.950002312660217 25.61568069458008 2.498162269592285 24.95000076293945 3.19794225692749 24.95000076293945 L 3.996572256088257 24.95000076293945 C 4.244322299957275 24.95000076293945 4.445882320404053 25.15155982971191 4.445882320404053 25.39932060241699 C 4.445882320404053 25.64706993103027 4.244322299957275 25.84863090515137 3.996572256088257 25.84863090515137 L 3.19794225692749 25.84863090515137 C 3.036402225494385 25.84863090515137 2.848632335662842 26.11808013916016 2.848632335662842 26.46548080444336 L 2.848632335662842 27.52766036987305 C 2.848632335662842 27.89118003845215 3.032722234725952 28.14451026916504 3.19794225692749 28.14451026916504 L 3.996572256088257 28.14451026916504 C 4.244322299957275 28.14451026916504 4.445882320404053 28.34607124328613 4.445882320404053 28.59383010864258 C 4.445882320404053 28.84158134460449 4.244322299957275 29.04314041137695 3.996572256088257 29.04314041137695 Z" stroke="none"/>
        <path d="M 3.996572256088257 28.99314117431641 C 4.216992378234863 28.99314117431641 4.395882129669189 28.81425094604492 4.395882129669189 28.59383010864258 C 4.395882129669189 28.37339973449707 4.216992378234863 28.19451141357422 3.996572256088257 28.19451141357422 L 3.19794225692749 28.19451141357422 C 3.010262250900269 28.19451141357422 2.798632144927979 27.92698097229004 2.798632144927979 27.52766036987305 L 2.798632144927979 26.46548080444336 C 2.798632144927979 26.08213996887207 3.010262250900269 25.79862976074219 3.19794225692749 25.79862976074219 L 3.996572256088257 25.79862976074219 C 4.216992378234863 25.79862976074219 4.395882129669189 25.61974143981934 4.395882129669189 25.39932060241699 C 4.395882129669189 25.17889976501465 4.216992378234863 25 3.996572256088257 25 L 3.19794225692749 25 C 2.527092218399048 25 2.000002145767212 25.64289093017578 2.000002145767212 26.46548080444336 L 2.000002145767212 27.52766036987305 C 2.000002145767212 28.35024070739746 2.527092218399048 28.99314117431641 3.19794225692749 28.99314117431641 L 3.996572256088257 28.99314117431641 M 3.996572256088257 29.0931396484375 L 3.19794225692749 29.0931396484375 C 2.470122337341309 29.0931396484375 1.900002241134644 28.4055004119873 1.900002241134644 27.52766036987305 L 1.900002241134644 26.46548080444336 C 1.900002241134644 25.5876407623291 2.470122337341309 24.90000152587891 3.19794225692749 24.90000152587891 L 3.996572256088257 24.90000152587891 C 4.271892070770264 24.90000152587891 4.495882034301758 25.12399101257324 4.495882034301758 25.39932060241699 C 4.495882034301758 25.67464065551758 4.271892070770264 25.89863014221191 3.996572256088257 25.89863014221191 L 3.19794225692749 25.89863014221191 C 3.078782320022583 25.89863014221191 2.898632287979126 26.12471008300781 2.898632287979126 26.46548080444336 L 2.898632287979126 27.52766036987305 C 2.898632287979126 27.87368965148926 3.075902223587036 28.09451103210449 3.19794225692749 28.09451103210449 L 3.996572256088257 28.09451103210449 C 4.271892070770264 28.09451103210449 4.495882034301758 28.31850051879883 4.495882034301758 28.59383010864258 C 4.495882034301758 28.86915016174316 4.271892070770264 29.0931396484375 3.996572256088257 29.0931396484375 Z" stroke="none" fill="#3f536c"/>
      </g>
      <g id="Path_56" data-name="Path 56" transform="translate(-24.826 -17.413)" fill="#43526a" stroke-linecap="round">
        <path d="M 41.19794845581055 29.04314041137695 L 40.39931869506836 29.04314041137695 C 40.15156936645508 29.04314041137695 39.95000839233398 28.84158134460449 39.95000839233398 28.59383010864258 C 39.95000839233398 28.34607124328613 40.15156936645508 28.14451026916504 40.39931869506836 28.14451026916504 L 41.19794845581055 28.14451026916504 C 41.35948944091797 28.14451026916504 41.54726028442383 27.87506103515625 41.54726028442383 27.52766036987305 L 41.54726028442383 26.46548080444336 C 41.54726028442383 26.10196113586426 41.36316680908203 25.84863090515137 41.19794845581055 25.84863090515137 L 40.39931869506836 25.84863090515137 C 40.15156936645508 25.84863090515137 39.95000839233398 25.64706993103027 39.95000839233398 25.39932060241699 C 39.95000839233398 25.15155982971191 40.15156936645508 24.95000076293945 40.39931869506836 24.95000076293945 L 41.19794845581055 24.95000076293945 C 41.89772796630859 24.95000076293945 42.44588851928711 25.61568069458008 42.44588851928711 26.46548080444336 L 42.44588851928711 27.52766036987305 C 42.44588851928711 28.37746047973633 41.89772796630859 29.04314041137695 41.19794845581055 29.04314041137695 Z" stroke="none"/>
        <path d="M 41.19794845581055 28.99314117431641 C 41.86879730224609 28.99314117431641 42.39588928222656 28.35024070739746 42.39588928222656 27.52766036987305 L 42.39588928222656 26.46548080444336 C 42.39588928222656 25.64289093017578 41.86879730224609 25 41.19794845581055 25 L 40.39931869506836 25 C 40.17889785766602 25 40.00000762939453 25.17889976501465 40.00000762939453 25.39932060241699 C 40.00000762939453 25.61974143981934 40.17889785766602 25.79862976074219 40.39931869506836 25.79862976074219 L 41.19794845581055 25.79862976074219 C 41.38562774658203 25.79862976074219 41.59725952148438 26.06616973876953 41.59725952148438 26.46548080444336 L 41.59725952148438 27.52766036987305 C 41.59725952148438 27.91100120544434 41.38562774658203 28.19451141357422 41.19794845581055 28.19451141357422 L 40.39931869506836 28.19451141357422 C 40.17889785766602 28.19451141357422 40.00000762939453 28.37339973449707 40.00000762939453 28.59383010864258 C 40.00000762939453 28.81425094604492 40.17889785766602 28.99314117431641 40.39931869506836 28.99314117431641 L 41.19794845581055 28.99314117431641 M 41.19794845581055 29.0931396484375 L 40.39931869506836 29.0931396484375 C 40.12399673461914 29.0931396484375 39.90000915527344 28.86915016174316 39.90000915527344 28.59383010864258 C 39.90000915527344 28.31850051879883 40.12399673461914 28.09451103210449 40.39931869506836 28.09451103210449 L 41.19794845581055 28.09451103210449 C 41.31710815429688 28.09451103210449 41.49725723266602 27.86843109130859 41.49725723266602 27.52766036987305 L 41.49725723266602 26.46548080444336 C 41.49725723266602 26.11945152282715 41.31998825073242 25.89863014221191 41.19794845581055 25.89863014221191 L 40.39931869506836 25.89863014221191 C 40.12399673461914 25.89863014221191 39.90000915527344 25.67464065551758 39.90000915527344 25.39932060241699 C 39.90000915527344 25.12399101257324 40.12399673461914 24.90000152587891 40.39931869506836 24.90000152587891 L 41.19794845581055 24.90000152587891 C 41.9257698059082 24.90000152587891 42.49588775634766 25.5876407623291 42.49588775634766 26.46548080444336 L 42.49588775634766 27.52766036987305 C 42.49588775634766 28.4055004119873 41.9257698059082 29.0931396484375 41.19794845581055 29.0931396484375 Z" stroke="none" fill="#3f536c"/>
      </g>
      <g id="Path_57" data-name="Path 57" transform="translate(-13.413 -25.222)" fill="#43526a" stroke-linecap="round">
        <path d="M 22.19794464111328 40.44588470458984 C 21.50982475280762 40.44588470458984 20.95000457763672 39.88606643676758 20.95000457763672 39.19794464111328 C 20.95000457763672 38.50982284545898 21.50982475280762 37.95000457763672 22.19794464111328 37.95000457763672 C 22.88606452941895 37.95000457763672 23.44588470458984 38.50982284545898 23.44588470458984 39.19794464111328 C 23.44588470458984 39.88606643676758 22.88606452941895 40.44588470458984 22.19794464111328 40.44588470458984 Z M 22.19794464111328 38.8486328125 C 22.00533485412598 38.8486328125 21.84863471984863 39.00533294677734 21.84863471984863 39.19794464111328 C 21.84863471984863 39.39055633544922 22.00533485412598 39.54725646972656 22.19794464111328 39.54725646972656 C 22.39055442810059 39.54725646972656 22.54725456237793 39.39055633544922 22.54725456237793 39.19794464111328 C 22.54725456237793 39.00533294677734 22.39055442810059 38.8486328125 22.19794464111328 38.8486328125 Z" stroke="none"/>
        <path d="M 22.19794464111328 40.3958854675293 C 22.85960388183594 40.3958854675293 23.3958854675293 39.85961532592773 23.3958854675293 39.19794464111328 C 23.3958854675293 38.53628540039062 22.85960388183594 38.00000381469727 22.19794464111328 38.00000381469727 C 21.53628540039062 38.00000381469727 21.00000381469727 38.53628540039062 21.00000381469727 39.19794464111328 C 21.00000381469727 39.85961532592773 21.53628540039062 40.3958854675293 22.19794464111328 40.3958854675293 M 22.19794464111328 38.79863357543945 C 22.41836547851562 38.79863357543945 22.59725379943848 38.97752380371094 22.59725379943848 39.19794464111328 C 22.59725379943848 39.41836547851562 22.41836547851562 39.59725570678711 22.19794464111328 39.59725570678711 C 21.97752380371094 39.59725570678711 21.79863548278809 39.41836547851562 21.79863548278809 39.19794464111328 C 21.79863548278809 38.97752380371094 21.97752380371094 38.79863357543945 22.19794464111328 38.79863357543945 M 22.19794464111328 40.49588394165039 C 21.48225402832031 40.49588394165039 20.90000534057617 39.91363525390625 20.90000534057617 39.19794464111328 C 20.90000534057617 38.48225402832031 21.48225402832031 37.90000534057617 22.19794464111328 37.90000534057617 C 22.91363525390625 37.90000534057617 23.49588394165039 38.48225402832031 23.49588394165039 39.19794464111328 C 23.49588394165039 39.91363525390625 22.91363525390625 40.49588394165039 22.19794464111328 40.49588394165039 Z M 22.19794464111328 38.89863586425781 C 22.03290557861328 38.89863586425781 21.89863395690918 39.03290557861328 21.89863395690918 39.19794464111328 C 21.89863395690918 39.36298370361328 22.03290557861328 39.49725341796875 22.19794464111328 39.49725341796875 C 22.36298370361328 39.49725341796875 22.49725532531738 39.36298370361328 22.49725532531738 39.19794464111328 C 22.49725532531738 39.03290557861328 22.36298370361328 38.89863586425781 22.19794464111328 38.89863586425781 Z" stroke="none" fill="#3f536c"/>
      </g>
      <g id="Path_58" data-name="Path 58" transform="translate(-22.423 -16.212)" fill="#43526a" stroke-linecap="round">
        <path d="M 37.19793319702148 28.64039993286133 C 36.50982284545898 28.64039993286133 35.95000457763672 28.08057975769043 35.95000457763672 27.39245986938477 L 35.95000457763672 24.19795036315918 C 35.95000457763672 23.50983047485352 36.50982284545898 22.95000076293945 37.19793319702148 22.95000076293945 C 37.88605499267578 22.95000076293945 38.44588470458984 23.50983047485352 38.44588470458984 24.19795036315918 L 38.44588470458984 27.39245986938477 C 38.44588470458984 28.08057975769043 37.88605499267578 28.64039993286133 37.19793319702148 28.64039993286133 Z M 37.19793319702148 23.84863090515137 C 37.00532531738281 23.84863090515137 36.84862518310547 24.00533103942871 36.84862518310547 24.19795036315918 L 36.84862518310547 27.39245986938477 C 36.84862518310547 27.58506965637207 37.00532531738281 27.74176979064941 37.19793319702148 27.74176979064941 C 37.39055633544922 27.74176979064941 37.54725646972656 27.58506965637207 37.54725646972656 27.39245986938477 L 37.54725646972656 24.19795036315918 C 37.54725646972656 24.00533103942871 37.39055633544922 23.84863090515137 37.19793319702148 23.84863090515137 Z" stroke="none"/>
        <path d="M 37.19793319702148 28.59040069580078 C 37.85960388183594 28.59040069580078 38.3958854675293 28.05412101745605 38.3958854675293 27.39245986938477 L 38.3958854675293 24.19795036315918 C 38.3958854675293 23.53627967834473 37.85960388183594 23 37.19793319702148 23 C 36.53628540039062 23 36.00000381469727 23.53627967834473 36.00000381469727 24.19795036315918 L 36.00000381469727 27.39245986938477 C 36.00000381469727 28.05412101745605 36.53628540039062 28.59040069580078 37.19793319702148 28.59040069580078 M 37.19793319702148 23.79862976074219 C 37.41836547851562 23.79862976074219 37.59725570678711 23.97751998901367 37.59725570678711 24.19795036315918 L 37.59725570678711 27.39245986938477 C 37.59725570678711 27.61288070678711 37.41836547851562 27.79177093505859 37.19793319702148 27.79177093505859 C 36.97752380371094 27.79177093505859 36.79862594604492 27.61288070678711 36.79862594604492 27.39245986938477 L 36.79862594604492 24.19795036315918 C 36.79862594604492 23.97751998901367 36.97752380371094 23.79862976074219 37.19793319702148 23.79862976074219 M 37.19793319702148 28.69040107727051 C 36.48225402832031 28.69040107727051 35.90000534057617 28.10815048217773 35.90000534057617 27.39245986938477 L 35.90000534057617 24.19795036315918 C 35.90000534057617 23.48225975036621 36.48225402832031 22.89999961853027 37.19793319702148 22.89999961853027 C 37.91362380981445 22.89999961853027 38.49588394165039 23.48225975036621 38.49588394165039 24.19795036315918 L 38.49588394165039 27.39245986938477 C 38.49588394165039 28.10815048217773 37.91362380981445 28.69040107727051 37.19793319702148 28.69040107727051 Z M 37.19793319702148 23.89863014221191 C 37.03289413452148 23.89863014221191 36.89862442016602 24.03289985656738 36.89862442016602 24.19795036315918 L 36.89862442016602 27.39245986938477 C 36.89862442016602 27.5575008392334 37.03289413452148 27.69177055358887 37.19793319702148 27.69177055358887 C 37.36298370361328 27.69177055358887 37.49725341796875 27.5575008392334 37.49725341796875 27.39245986938477 L 37.49725341796875 24.19795036315918 C 37.49725341796875 24.03289985656738 37.36298370361328 23.89863014221191 37.19793319702148 23.89863014221191 Z" stroke="none" fill="#3f536c"/>
      </g>
    </g>
  </g>
</svg>
