<svg xmlns="http://www.w3.org/2000/svg" width="16.905" height="16.901" viewBox="0 0 16.905 16.901">
  <path id="insta" d="M8.449,6.355a4.333,4.333,0,1,0,4.333,4.333A4.326,4.326,0,0,0,8.449,6.355Zm0,7.15a2.817,2.817,0,1,1,2.817-2.817A2.822,2.822,0,0,1,8.449,13.505ZM13.97,6.178a1.011,1.011,0,1,1-1.011-1.011A1.008,1.008,0,0,1,13.97,6.178ZM16.84,7.2a5,5,0,0,0-1.365-3.541A5.035,5.035,0,0,0,11.934,2.3c-1.4-.079-5.578-.079-6.973,0A5.027,5.027,0,0,0,1.419,3.659,5.018,5.018,0,0,0,.054,7.2c-.079,1.4-.079,5.578,0,6.973a5,5,0,0,0,1.365,3.541,5.041,5.041,0,0,0,3.541,1.365c1.4.079,5.578.079,6.973,0a5,5,0,0,0,3.541-1.365,5.035,5.035,0,0,0,1.365-3.541c.079-1.4.079-5.574,0-6.969Zm-1.8,8.466a2.852,2.852,0,0,1-1.607,1.607c-1.113.441-3.752.339-4.982.339s-3.873.1-4.982-.339A2.852,2.852,0,0,1,1.861,15.67c-.441-1.113-.339-3.752-.339-4.982s-.1-3.873.339-4.982A2.852,2.852,0,0,1,3.467,4.1C4.58,3.659,7.219,3.76,8.449,3.76s3.873-.1,4.982.339a2.852,2.852,0,0,1,1.607,1.607c.441,1.113.339,3.752.339,4.982S15.478,14.561,15.037,15.67Z" transform="translate(0.005 -2.238)" fill="#3f536c"/>
</svg>
