<svg xmlns="http://www.w3.org/2000/svg" width="22.786" height="22.783" viewBox="0 0 22.786 22.783">
  <path id="kayak" d="M19.227,4.273a2.136,2.136,0,1,0-2.136-2.136A2.137,2.137,0,0,0,19.227,4.273Zm3.249,15.849a1.064,1.064,0,0,0-1.509,0,1.811,1.811,0,0,1-2.007.387l-6.044-3.124,2.19-3.285a2.137,2.137,0,0,0-.267-2.7l-1.8-1.8L8.278,7.237a2.839,2.839,0,0,0,.788,2.421L12.409,13l-2.043,3.062L1.558,11.514a1.067,1.067,0,0,0-.979,1.9l17.442,9.013a3.919,3.919,0,0,0,1.651.361,3.962,3.962,0,0,0,2.8-1.157,1.066,1.066,0,0,0,0-1.5ZM5.341,4.077l-.512,1a1.743,1.743,0,0,0,1.9-.214l2.1,1.041s0,.009-.009.013l5.1,2.528,1.442-.579.285.85a2.119,2.119,0,0,0,1.068,1.233L19.3,11.242A1.423,1.423,0,0,0,20.576,8.7L18.257,7.535,17.5,5.256a2.86,2.86,0,0,0-3.761-1.745L10.121,4.958,7.339,3.578a1.725,1.725,0,0,0-.93-1.584l-.494.966H5.906L4.375,2.648a.227.227,0,0,0-.223.076.233.233,0,0,0,.022.329L5.341,4.077Z" transform="translate(0)" fill="#fff"/>
</svg>
