<svg xmlns="http://www.w3.org/2000/svg" xmlns:xlink="http://www.w3.org/1999/xlink" width="19.704" height="16" viewBox="0 0 19.704 16">
  <defs>
    <clipPath id="clip-path">
      <rect id="Rectangle_189" data-name="Rectangle 189" width="19.704" height="16" fill="#6f7e90"/>
    </clipPath>
  </defs>
  <g id="kişisayısı" clip-path="url(#clip-path)">
    <path id="Path_282" data-name="Path 282" d="M.473,16A.474.474,0,0,1,0,15.526V10.055a2.047,2.047,0,0,1,1.563-1.98V1.458A.473.473,0,0,1,1.919,1,31.978,31.978,0,0,1,17.786,1a.473.473,0,0,1,.356.458V8.074a2.049,2.049,0,0,1,1.563,1.98v5.471a.476.476,0,0,1-.473.474H17.218a.475.475,0,0,1-.473-.474V14.046H2.96v1.48A.474.474,0,0,1,2.487,16Zm18.28-.947,0-3.352H.947v3.352H2.013V13.571a.474.474,0,0,1,.473-.473H17.219a.474.474,0,0,1,.473.473v1.481Zm0-4.3,0-.7a1.093,1.093,0,0,0-1.089-1.089H2.037A1.093,1.093,0,0,0,.947,10.055v.7ZM15.63,8.021v-.76a.468.468,0,0,0-.467-.466H11.915a.467.467,0,0,0-.467.466v.76Zm-5.129,0v-.76a1.418,1.418,0,0,1,1.414-1.414h3.249a1.418,1.418,0,0,1,1.414,1.414v.758h.615V1.828a31.027,31.027,0,0,0-14.684,0V8.021h.617v-.76A1.418,1.418,0,0,1,4.541,5.844H7.792A1.418,1.418,0,0,1,9.2,7.261v.76Zm-2.248,0V7.206a.467.467,0,0,0-.462-.411H4.541a.467.467,0,0,0-.467.466v.76Z" transform="translate(0 0)" fill="#6f7e90"/>
  </g>
</svg>
