<svg id="menu" xmlns="http://www.w3.org/2000/svg" width="23.017" height="18" viewBox="0 0 23.017 18">
  <path id="Path_41" data-name="Path 41" d="M32.756,47.2H46.8a1.74,1.74,0,0,1,1.725,1.725h0A1.74,1.74,0,0,1,46.8,50.649H32.725A1.74,1.74,0,0,1,31,48.925h0A1.747,1.747,0,0,1,32.756,47.2Z" transform="translate(-31 -39.925)" fill="#3f536c"/>
  <path id="Path_42" data-name="Path 42" d="M15.256,24H34.793a1.74,1.74,0,0,1,1.725,1.725h0a1.74,1.74,0,0,1-1.725,1.725H15.225A1.74,1.74,0,0,1,13.5,25.725h0A1.767,1.767,0,0,1,15.256,24Z" transform="translate(-13.5 -24)" fill="#3f536c"/>
  <path id="Path_43" data-name="Path 43" d="M15.256,70.4H34.793a1.74,1.74,0,0,1,1.725,1.725h0a1.74,1.74,0,0,1-1.725,1.725H15.225A1.74,1.74,0,0,1,13.5,72.125h0A1.767,1.767,0,0,1,15.256,70.4Z" transform="translate(-13.5 -55.849)" fill="#3f536c"/>
</svg>
