<svg xmlns="http://www.w3.org/2000/svg" width="27.145" height="20.495" viewBox="0 0 27.145 20.495">
  <path id="pandemic" d="M11.246,18.043a1.75,1.75,0,0,1-.015-2.558,1.962,1.962,0,0,1,2.682-.015,1.748,1.748,0,0,1,.378,2.066c.233.216.453.415.662.592a13.494,13.494,0,0,1-1.27.535l-.283-.284A1.966,1.966,0,0,1,11.246,18.043Zm2.776,13H13.96a8.013,8.013,0,0,1-2.857-.5,1.75,1.75,0,0,0,.288,2.539,1.956,1.956,0,0,0,2.662-.275,1.739,1.739,0,0,0,.291-1.784A1.983,1.983,0,0,1,14.022,31.043Zm10.139-6.658a.621.621,0,1,0,.647.623v0a.638.638,0,0,0-.635-.62Zm-2.356,3.33a.319.319,0,1,0,.331.321v-.006A.326.326,0,0,0,21.805,27.716Zm5.833-3.049A6.687,6.687,0,0,1,26.1,28.5a6.415,6.415,0,0,0,1.3,1.542,1.938,1.938,0,0,1,2.528.853,1.773,1.773,0,0,1-.895,2.412,1.938,1.938,0,0,1-2.528-.853,1.734,1.734,0,0,1,0-1.558,7.194,7.194,0,0,0-1.619-1.243,7.447,7.447,0,0,1-4.026,1.465,7.691,7.691,0,0,0-.045,1,1.193,1.193,0,0,1,.772,1.538,1.281,1.281,0,0,1-1.613.736,1.192,1.192,0,0,1-.772-1.538,1.238,1.238,0,0,1,.772-.736,8.839,8.839,0,0,0-.051-1,7.5,7.5,0,0,1-2.839-.748,7.007,7.007,0,0,0,4.154-5.586,8.885,8.885,0,0,0,.054-.976,8.568,8.568,0,0,0-2.72-6.285,7.637,7.637,0,0,1,1.36-.21,7.691,7.691,0,0,0,.045-1,1.193,1.193,0,0,1-.772-1.538,1.281,1.281,0,0,1,1.613-.736,1.192,1.192,0,0,1,.772,1.538,1.237,1.237,0,0,1-.772.736,8.838,8.838,0,0,0,.051,1A7.4,7.4,0,0,1,24.9,18.791a6.75,6.75,0,0,0,1.607-1.251,1.773,1.773,0,0,1,.895-2.412,1.938,1.938,0,0,1,2.528.853,1.773,1.773,0,0,1-.895,2.412,1.98,1.98,0,0,1-1.634,0,7.233,7.233,0,0,0-1.312,1.536,6.7,6.7,0,0,1,1.545,3.848,8.857,8.857,0,0,0,1.05.043,1.281,1.281,0,0,1,1.613-.736,1.192,1.192,0,0,1,.772,1.538,1.281,1.281,0,0,1-1.613.736,1.237,1.237,0,0,1-.772-.736A9.44,9.44,0,0,0,27.638,24.667ZM21.4,20.938a1.564,1.564,0,1,0,1.566-1.487h0A1.531,1.531,0,0,0,21.4,20.938Zm1.333,7.093a.931.931,0,1,0-.93.887h0a.907.907,0,0,0,.927-.885Zm2.684-3.026a1.248,1.248,0,1,0-1.249,1.186h.006A1.218,1.218,0,0,0,25.416,25.005ZM22.962,21.86A.923.923,0,1,0,22,20.938h0A.945.945,0,0,0,22.962,21.86ZM8.154,21.846a2.341,2.341,0,0,0-1.867.04,1.638,1.638,0,0,0-.659,1.49A1.925,1.925,0,0,0,6.3,24.983a2.157,2.157,0,0,0,1.318.4,2.823,2.823,0,0,0,.48-.026.287.287,0,0,0,.236-.284V22.11A.284.284,0,0,0,8.154,21.846Zm5.806,8.629a6.558,6.558,0,0,1-5.916-3.231C4.531,26.968,4,24.724,4,23.4a3.373,3.373,0,0,1,.93-2.56,2.6,2.6,0,0,1,1.911-.62c.325.017.629.026.933.026a16.265,16.265,0,0,0,9.453-2.793.31.31,0,0,1,.364,0A7.969,7.969,0,0,1,20.7,23.811a8.467,8.467,0,0,1-.051.916,6.6,6.6,0,0,1-6.632,5.748Zm0-.569h.051a6.087,6.087,0,0,0,5.737-3.945A10.5,10.5,0,0,1,14.7,27.082c-.6,0-1-.037-1.053-.043a.289.289,0,0,1-.268-.31.3.3,0,0,1,.325-.256h0c.039,0,4.058.361,6.217-1.325a.5.5,0,0,1,.057-.026c.027-.151.054-.3.072-.455a.841.841,0,0,1,.021-.228,10.237,10.237,0,0,1-5.227,1.226c-.6,0-1-.034-1.053-.04a.288.288,0,0,1-.253-.31.3.3,0,0,1,.325-.256c.042,0,4.061.361,6.22-1.325h.024a6.72,6.72,0,0,0-.039-.694,10.257,10.257,0,0,1-5.212,1.217c-.6,0-1-.034-1.053-.04a.288.288,0,0,1-.267-.311l0-.013a.3.3,0,0,1,.325-.256c.042,0,3.927.347,6.11-1.246a7.317,7.317,0,0,0-2.567-4.354A17.01,17.01,0,0,1,7.775,20.8c-.313,0-.629,0-.939-.023H6.69a1.92,1.92,0,0,0-1.348.466A2.827,2.827,0,0,0,4.6,23.4c0,1.4.635,3.129,3.656,3.293a.3.3,0,0,1,.256.171A5.8,5.8,0,0,0,13.96,29.906Z" transform="translate(-4 -13.97)" fill="#fff"/>
</svg>
