<svg xmlns="http://www.w3.org/2000/svg" width="16.052" height="20" viewBox="0 0 16.052 20">
  <path id="Path_40" data-name="Path 40" d="M24.776,26.97c-.853,0-3.128-2.269-4.442-3.908C18.7,21.024,16.75,17.9,16.75,14.614A7.851,7.851,0,0,1,24.776,6.97,7.851,7.851,0,0,1,32.8,14.614c0,3.271-1.981,6.4-3.644,8.451C27.836,24.7,25.529,26.97,24.776,26.97Zm0-18.851a6.67,6.67,0,0,0-6.819,6.494c0,5.094,5.5,10.388,6.8,11.15,1.216-.792,6.84-6,6.84-11.15A6.67,6.67,0,0,0,24.776,8.119Zm0,9.818a3.414,3.414,0,0,1-3.49-3.324,3.494,3.494,0,0,1,6.98,0A3.414,3.414,0,0,1,24.776,17.938Zm0-5.5a2.177,2.177,0,1,0,2.283,2.174A2.233,2.233,0,0,0,24.776,12.439Z" transform="translate(-16.75 -6.97)" fill="#6f7e90"/>
</svg>
