<svg xmlns="http://www.w3.org/2000/svg" width="118.572" height="119" viewBox="0 0 118.572 119">
  <g id="qr" transform="translate(-11.572 -11.545)">
    <rect id="Rectangle_51" data-name="Rectangle 51" width="3" height="4" transform="translate(72.572 11.545)" fill="#3f536c"/>
    <rect id="Rectangle_52" data-name="Rectangle 52" width="4" height="4" transform="translate(81.572 11.545)" fill="#3f536c"/>
    <rect id="Rectangle_53" data-name="Rectangle 53" width="3" height="4" transform="translate(88.572 11.545)" fill="#3f536c"/>
    <path id="Path_69" data-name="Path 69" d="M121.167,12H102V34.362h22.362V12Zm0,6.389V31.167H105.195V15.195h15.973Z" transform="translate(5.783 -0.054)" fill="#3f536c"/>
    <path id="Path_70" data-name="Path 70" d="M57.195,18.389v3.195h3.195V18.389h9.584V15.195H63.584V12H54v3.195h3.195Z" transform="translate(2.67 -0.054)" fill="#3f536c"/>
    <path id="Path_71" data-name="Path 71" d="M90.195,18.389h9.584V12H90.195v3.195H87v3.195Z" transform="translate(4.81 -0.054)" fill="#3f536c"/>
    <path id="Path_72" data-name="Path 72" d="M111.195,18H108v9.584h9.584V18h-6.389Z" transform="translate(6.172 0.335)" fill="#3f536c"/>
    <path id="Path_73" data-name="Path 73" d="M42.389,21.584H39.195V18.389H55.167V15.195H51.973V12H42.389v3.195H39.195V12H36V27.973h6.389V21.584Z" transform="translate(1.502 -0.054)" fill="#3f536c"/>
    <path id="Path_74" data-name="Path 74" d="M24.389,27.584h3.195V18H18v9.584h6.389Z" transform="translate(0.335 0.335)" fill="#3f536c"/>
    <path id="Path_75" data-name="Path 75" d="M76.751,27.584V24.389H73.556V21.195h3.195V18H70.362v3.195H60.778v3.195h3.195v3.195H60.778V24.389H51.195V21.195H48v6.389h3.195v3.195h3.195V27.584h3.195v3.195h3.195v3.195h3.195V30.778h3.195V27.584h3.195v3.195h3.195V27.584Z" transform="translate(2.281 0.335)" fill="#3f536c"/>
    <path id="Path_76" data-name="Path 76" d="M45.195,27H42v6.389h3.195V30.195h3.195V27Z" transform="translate(1.892 0.919)" fill="#3f536c"/>
    <rect id="Rectangle_54" data-name="Rectangle 54" width="2" height="2" transform="translate(79.572 28.545)" fill="#3f536c"/>
    <path id="Path_77" data-name="Path 77" d="M81.195,30.973h3.195v6.389H81.195v3.195h3.195v3.195h3.195V40.556h3.195V37.362h3.195V30.973h3.195v6.389h3.195V24.584H93.973V21.389H90.778v3.195H87.584v3.195h3.195v6.389H87.584V27.778H84.389V21.389h3.195V18.195H84.389V15H81.195v9.584H78v3.195h3.195Z" transform="translate(4.226 0.141)" fill="#3f536c"/>
    <path id="Path_78" data-name="Path 78" d="M18.389,34.362H34.362V12H12V34.362h6.389Zm-3.195-6.389V15.195H31.167V31.167H15.195Z" transform="translate(-0.054 -0.054)" fill="#3f536c"/>
    <rect id="Rectangle_55" data-name="Rectangle 55" width="3" height="4" transform="translate(69.572 30.545)" fill="#3f536c"/>
    <path id="Path_79" data-name="Path 79" d="M39.195,33.195V30H36v6.389h3.195Z" transform="translate(1.502 1.113)" fill="#3f536c"/>
    <rect id="Rectangle_56" data-name="Rectangle 56" width="3" height="3" transform="translate(66.572 34.545)" fill="#3f536c"/>
    <rect id="Rectangle_57" data-name="Rectangle 57" width="4" height="3" transform="translate(24.572 37.545)" fill="#3f536c"/>
    <path id="Path_80" data-name="Path 80" d="M42.195,39.195v3.195h3.195V36H39v3.195Z" transform="translate(1.697 1.502)" fill="#3f536c"/>
    <path id="Path_81" data-name="Path 81" d="M57.584,36.389V30H54.389v3.195H51.195V30H48v9.584h9.584v3.195h3.195V39.584h3.195V36.389H57.584Z" transform="translate(2.281 1.113)" fill="#3f536c"/>
    <path id="Path_82" data-name="Path 82" d="M78.389,36.389h3.195V30H78.389v3.195H75.195V30H72v6.389h3.195v3.195h3.195Z" transform="translate(3.837 1.113)" fill="#3f536c"/>
    <rect id="Rectangle_58" data-name="Rectangle 58" width="4" height="3" transform="translate(97.572 37.545)" fill="#3f536c"/>
    <path id="Path_83" data-name="Path 83" d="M117.584,36H108v3.195h12.778v3.195h-6.389v3.195h6.389v3.195h3.195V36h-6.389Z" transform="translate(6.172 1.502)" fill="#3f536c"/>
    <path id="Path_84" data-name="Path 84" d="M18.389,39.195h3.195V36H15.195v3.195H12v3.195h3.195v3.195h3.195V39.195Z" transform="translate(-0.054 1.502)" fill="#3f536c"/>
    <rect id="Rectangle_59" data-name="Rectangle 59" width="3" height="4" transform="translate(21.572 40.545)" fill="#3f536c"/>
    <path id="Path_85" data-name="Path 85" d="M39.584,42.389V39.195H36.389V36H30v3.195h3.195v3.195h6.389Z" transform="translate(1.113 1.502)" fill="#3f536c"/>
    <path id="Path_86" data-name="Path 86" d="M33.389,45.195V42H27v3.195h6.389Z" transform="translate(0.919 1.892)" fill="#3f536c"/>
    <path id="Path_87" data-name="Path 87" d="M52.167,42v3.195H42.584V42H39.389v3.195H33v3.195h3.195v3.195H33v3.195h6.389V51.584h3.195V48.389h3.195v6.389h3.195V51.584h3.195V48.389h3.195V45.195h3.195V42H52.167Z" transform="translate(1.308 1.892)" fill="#3f536c"/>
    <path id="Path_88" data-name="Path 88" d="M66.195,45.195v6.389H63v3.195h6.389V42H66.195Z" transform="translate(3.253 1.892)" fill="#3f536c"/>
    <path id="Path_89" data-name="Path 89" d="M81.584,42.195V39H78.389v6.389H75.195V39H72v9.584h3.195v3.195h3.195V48.584h3.195V42.195Z" transform="translate(3.837 1.697)" fill="#3f536c"/>
    <path id="Path_90" data-name="Path 90" d="M108.389,45.584V39.195h-3.195V36H102v9.584h6.389Z" transform="translate(5.783 1.502)" fill="#3f536c"/>
    <rect id="Rectangle_60" data-name="Rectangle 60" width="3" height="4" transform="translate(18.572 46.545)" fill="#3f536c"/>
    <path id="Path_91" data-name="Path 91" d="M96.778,45.195H90.389V42H87.195v3.195H84v3.195h3.195v3.195h3.195V48.389h3.195v3.195h3.195V45.195Z" transform="translate(4.615 1.892)" fill="#3f536c"/>
    <rect id="Rectangle_61" data-name="Rectangle 61" width="4" height="3" transform="translate(30.572 50.545)" fill="#3f536c"/>
    <rect id="Rectangle_62" data-name="Rectangle 62" width="3" height="3" transform="translate(85.572 50.545)" fill="#3f536c"/>
    <rect id="Rectangle_63" data-name="Rectangle 63" width="3" height="3" transform="translate(123.572 50.545)" fill="#3f536c"/>
    <rect id="Rectangle_64" data-name="Rectangle 64" width="3" height="3" transform="translate(18.572 53.545)" fill="#3f536c"/>
    <path id="Path_92" data-name="Path 92" d="M27.195,51.389V45H24v9.584h6.389V51.389Z" transform="translate(0.724 2.086)" fill="#3f536c"/>
    <path id="Path_93" data-name="Path 93" d="M55.945,54.389H49.556V70.362H46.362V63.973H43.167v6.389H36.778V67.167h3.195V63.973h3.195V60.778H36.778v3.195H33.584v3.195H30.389V63.973h3.195V60.778H30.389V57.584H24v3.195h3.195v3.195H24v9.584h3.195V70.362h6.389v3.195h3.195v3.195h3.195V73.556h3.195v6.389h3.195V83.14H39.973v3.195H55.945V83.14H52.751V79.945h3.195V76.751H46.362V73.556h6.389V70.362h3.195V67.167H52.751V63.973h3.195v3.195H59.14v3.195H55.945v3.195H59.14v3.195h9.584V70.362H62.335V67.167H75.113v9.584h3.195v3.195H81.5V67.167H78.307V63.973H71.918V60.778H68.724V57.584H62.335v3.195h3.195v3.195H62.335V60.778H55.945V57.584H59.14V51.195h3.195V48H55.945v6.389Z" transform="translate(0.724 2.281)" fill="#3f536c"/>
    <path id="Path_94" data-name="Path 94" d="M84.195,54.195v3.195h3.195v6.389H84.195v6.389H81v3.195h3.195v3.195h6.389V70.167H87.389V66.973h6.389V63.778H90.584V60.584h3.195V57.389H90.584V54.195H87.389V51H84.195Z" transform="translate(4.421 2.475)" fill="#3f536c"/>
    <path id="Path_95" data-name="Path 95" d="M102.195,54.584h3.195V48.195h-3.195V45H99v6.389h3.195Z" transform="translate(5.588 2.086)" fill="#3f536c"/>
    <rect id="Rectangle_65" data-name="Rectangle 65" width="4" height="3" transform="translate(30.572 56.545)" fill="#3f536c"/>
    <path id="Path_96" data-name="Path 96" d="M42,57.195v3.195h3.195V54H42Z" transform="translate(1.892 2.67)" fill="#3f536c"/>
    <path id="Path_97" data-name="Path 97" d="M72,54v6.389h3.195V57.195h3.195V54H72Z" transform="translate(3.837 2.67)" fill="#3f536c"/>
    <rect id="Rectangle_66" data-name="Rectangle 66" width="4" height="3" transform="translate(113.572 56.545)" fill="#3f536c"/>
    <path id="Path_98" data-name="Path 98" d="M117.389,54.584V51.389h-3.195V45H111v9.584h3.195v3.195h3.195v3.195h3.195V57.778h3.195V51.389h-3.195v3.195Z" transform="translate(6.366 2.086)" fill="#3f536c"/>
    <rect id="Rectangle_67" data-name="Rectangle 67" width="3" height="3" transform="translate(34.572 59.545)" fill="#3f536c"/>
    <rect id="Rectangle_68" data-name="Rectangle 68" width="3" height="3" transform="translate(85.572 59.545)" fill="#3f536c"/>
    <path id="Path_99" data-name="Path 99" d="M21.584,60.778V57.584H18.389V54.389H15.195V51.195h3.195V48H12V63.973h3.195V60.778h3.195v3.195h6.389V60.778Z" transform="translate(-0.054 2.281)" fill="#3f536c"/>
    <path id="Path_100" data-name="Path 100" d="M114.195,60H111v6.389h3.195V60Z" transform="translate(6.366 3.059)" fill="#3f536c"/>
    <path id="Path_101" data-name="Path 101" d="M108.778,63.778h-3.195V57.389h-3.195V54.195H99.195V51H96v6.389h3.195v3.195H96v6.389h9.584v3.195h6.389V66.973h-3.195Z" transform="translate(5.393 2.475)" fill="#3f536c"/>
    <path id="Path_102" data-name="Path 102" d="M117.195,63.195v3.195H114v3.195h9.584V60h-3.195v3.195Z" transform="translate(6.561 3.059)" fill="#3f536c"/>
    <rect id="Rectangle_69" data-name="Rectangle 69" width="4" height="3" transform="translate(14.572 69.545)" fill="#3f536c"/>
    <rect id="Rectangle_70" data-name="Rectangle 70" width="3" height="3" transform="translate(11.572 72.545)" fill="#3f536c"/>
    <rect id="Rectangle_71" data-name="Rectangle 71" width="4" height="4" transform="translate(30.572 75.545)" fill="#3f536c"/>
    <path id="Path_103" data-name="Path 103" d="M99.389,75.389v3.195h3.195v3.195h3.195V75.389h3.195V72.195H99.389V69H96.195v3.195H93v3.195h6.389Z" transform="translate(5.199 3.643)" fill="#3f536c"/>
    <path id="Path_104" data-name="Path 104" d="M21.584,75.389V69H18.389v6.389H12v3.195h6.389v3.195h3.195V78.584h3.195V75.389Z" transform="translate(-0.054 3.643)" fill="#3f536c"/>
    <rect id="Rectangle_72" data-name="Rectangle 72" width="3" height="3" transform="translate(34.572 79.545)" fill="#3f536c"/>
    <rect id="Rectangle_73" data-name="Rectangle 73" width="3" height="3" transform="translate(72.572 79.545)" fill="#3f536c"/>
    <rect id="Rectangle_74" data-name="Rectangle 74" width="2" height="3" transform="translate(95.572 79.545)" fill="#3f536c"/>
    <path id="Path_105" data-name="Path 105" d="M120,78.195v3.195h3.195V75H120Z" transform="translate(6.95 4.032)" fill="#3f536c"/>
    <rect id="Rectangle_75" data-name="Rectangle 75" width="3" height="3" transform="translate(37.572 82.545)" fill="#3f536c"/>
    <path id="Path_106" data-name="Path 106" d="M69.973,78H54v3.195h6.389v6.389h3.195V81.195h3.195v3.195h3.195V78Z" transform="translate(2.67 4.226)" fill="#3f536c"/>
    <path id="Path_107" data-name="Path 107" d="M75.389,78H72.195v6.389h3.195v3.195H72.195V84.389H69v6.389H81.778V87.584H78.584V81.195H75.389Z" transform="translate(3.643 4.226)" fill="#3f536c"/>
    <rect id="Rectangle_76" data-name="Rectangle 76" width="4" height="3" transform="translate(81.572 82.545)" fill="#3f536c"/>
    <rect id="Rectangle_77" data-name="Rectangle 77" width="3" height="3" transform="translate(88.572 82.545)" fill="#3f536c"/>
    <rect id="Rectangle_78" data-name="Rectangle 78" width="3" height="3" transform="translate(72.572 73.045)" fill="#3f536c"/>
    <rect id="Rectangle_79" data-name="Rectangle 79" width="4" height="3" transform="translate(113.572 82.545)" fill="#3f536c"/>
    <rect id="Rectangle_80" data-name="Rectangle 80" width="3" height="3" transform="translate(120.572 82.545)" fill="#3f536c"/>
    <path id="Path_108" data-name="Path 108" d="M27.195,81.195h6.389V78H24v6.389h3.195Z" transform="translate(0.724 4.226)" fill="#3f536c"/>
    <rect id="Rectangle_81" data-name="Rectangle 81" width="3" height="3" transform="translate(11.572 88.545)" fill="#3f536c"/>
    <rect id="Rectangle_82" data-name="Rectangle 82" width="3" height="3" transform="translate(21.572 88.545)" fill="#3f536c"/>
    <path id="Path_109" data-name="Path 109" d="M33.584,87.195V84H27.195v3.195H24v3.195h6.389V87.195Z" transform="translate(0.724 4.615)" fill="#3f536c"/>
    <rect id="Rectangle_83" data-name="Rectangle 83" width="3" height="3" transform="translate(37.572 88.545)" fill="#3f536c"/>
    <rect id="Rectangle_84" data-name="Rectangle 84" width="4" height="4" transform="translate(14.572 91.545)" fill="#3f536c"/>
    <path id="Path_110" data-name="Path 110" d="M33.195,90.195H30v3.195h6.389V87H33.195Z" transform="translate(1.113 4.81)" fill="#3f536c"/>
    <path id="Path_111" data-name="Path 111" d="M42.195,90.195v3.195h3.195V90.195h3.195v3.195H45.389v3.195h3.195v3.195h9.584V96.584H51.778V93.389h3.195V90.195h3.195V87H39v3.195Z" transform="translate(1.697 4.81)" fill="#3f536c"/>
    <rect id="Rectangle_85" data-name="Rectangle 85" width="3" height="4" transform="translate(117.572 91.545)" fill="#3f536c"/>
    <rect id="Rectangle_86" data-name="Rectangle 86" width="3" height="2" transform="translate(11.572 95.545)" fill="#3f536c"/>
    <rect id="Rectangle_87" data-name="Rectangle 87" width="3" height="2" transform="translate(88.572 95.545)" fill="#3f536c"/>
    <rect id="Rectangle_88" data-name="Rectangle 88" width="3" height="2" transform="translate(120.572 95.545)" fill="#3f536c"/>
    <path id="Path_112" data-name="Path 112" d="M120.195,93.389h3.195V87H117v3.195h3.195Z" transform="translate(6.755 4.81)" fill="#3f536c"/>
    <rect id="Rectangle_89" data-name="Rectangle 89" width="4" height="4" transform="translate(40.572 97.545)" fill="#3f536c"/>
    <path id="Path_113" data-name="Path 113" d="M58.362,96.973h3.195V93.778h3.195v9.584H61.556v3.195h3.195v3.195h3.195v3.195H71.14v3.195H67.945v-3.195H61.556v3.195H58.362v-3.195H51.973v-3.195h6.389v-6.389H55.167v3.195H45.584v3.195H42.389v3.195h3.195v3.195H42.389v-3.195H39.195v3.195H36v6.389h3.195v-3.195h3.195v3.195h3.195v-3.195h3.195v3.195h3.195v-3.195h6.389v3.195h3.195v3.195H74.335v-3.195H71.14v-3.195h3.195v3.195h3.195v3.195h9.584v-3.195h3.195v3.195H93.5v-3.195H96.7v3.195h9.584V112.945h6.389v3.195h-3.195v3.195h6.389v-6.389h3.195v-3.195h-3.195v-9.584h3.195V93.778h-3.195v3.195h-6.389V93.778h3.195V84.195H106.28V96.973H99.891v3.195H93.5V96.973H96.7V87.389h3.195V84.195H93.5V81H90.307v3.195H87.113v3.195h3.195v3.195H93.5v3.195H90.307v6.389H87.113v6.389h3.195v-3.195H96.7v3.195h3.195v6.389h3.195v6.389H99.891v-6.389H93.5v-6.389H90.307v6.389H87.113v3.195H96.7v3.195H83.918v-9.584h3.195v-3.195H83.918V96.973H80.724V93.778H77.529v3.195H67.945V90.584H58.362v6.389Zm44.724,9.584v-6.389h9.584v9.584h-9.584Zm-22.362,6.389v6.389H77.529v-9.584h3.195Zm-3.195-12.778v3.195h3.195v3.195H77.529v-3.195H74.335v6.389H71.14v-6.389h3.195v-3.195Z" transform="translate(1.502 4.421)" fill="#3f536c"/>
    <rect id="Rectangle_90" data-name="Rectangle 90" width="3" height="4" transform="translate(123.572 97.545)" fill="#3f536c"/>
    <rect id="Rectangle_91" data-name="Rectangle 91" width="3" height="3" transform="translate(11.572 101.545)" fill="#3f536c"/>
    <path id="Path_114" data-name="Path 114" d="M40.556,99.389V96.195H27.778V93H24.584v3.195H21.389V93H15v3.195h3.195v3.195H37.362v6.389h3.195V99.389Z" transform="translate(0.141 5.199)" fill="#3f536c"/>
    <rect id="Rectangle_92" data-name="Rectangle 92" width="2" height="3" transform="translate(44.572 104.545)" fill="#3f536c"/>
    <path id="Path_115" data-name="Path 115" d="M120.389,102.389H114v3.195h9.584V96h-3.195v6.389Z" transform="translate(6.561 5.393)" fill="#3f536c"/>
    <path id="Path_116" data-name="Path 116" d="M27.973,102H12v22.362H34.362V102H27.973Zm3.195,6.389v12.778H15.195V105.195H31.167Z" transform="translate(-0.054 5.783)" fill="#3f536c"/>
    <rect id="Rectangle_93" data-name="Rectangle 93" width="4" height="4" transform="translate(107.572 107.545)" fill="#3f536c"/>
    <rect id="Rectangle_94" data-name="Rectangle 94" width="4" height="2" transform="translate(40.572 111.545)" fill="#3f536c"/>
    <path id="Path_117" data-name="Path 117" d="M21.195,108H18v9.584h9.584V108H21.195Z" transform="translate(0.335 6.172)" fill="#3f536c"/>
    <rect id="Rectangle_95" data-name="Rectangle 95" width="3" height="4" transform="translate(37.572 113.545)" fill="#3f536c"/>
    <rect id="Rectangle_96" data-name="Rectangle 96" width="3" height="4" transform="translate(59.572 113.545)" fill="#3f536c"/>
    <path id="Path_118" data-name="Path 118" d="M114,117.389h3.195V111H114v6.389Z" transform="translate(6.561 6.366)" fill="#3f536c"/>
    <path id="Path_119" data-name="Path 119" d="M123.195,114.389V108H120v9.584h3.195Z" transform="translate(6.95 6.172)" fill="#3f536c"/>
    <rect id="Rectangle_97" data-name="Rectangle 97" width="4" height="4" transform="translate(46.572 126.545)" fill="#3f536c"/>
    <rect id="Rectangle_98" data-name="Rectangle 98" width="3" height="4" transform="translate(56.572 126.545)" fill="#3f536c"/>
    <rect id="Rectangle_99" data-name="Rectangle 99" width="4" height="4" transform="translate(113.572 126.545)" fill="#3f536c"/>
    <path id="Path_120" data-name="Path 120" d="M117,123.389h6.389v-3.195h-3.195V117H117v6.389Z" transform="translate(6.755 6.755)" fill="#3f536c"/>
  </g>
</svg>
