<svg id="sizi_arayalım" data-name="sizi arayalım" xmlns="http://www.w3.org/2000/svg" xmlns:xlink="http://www.w3.org/1999/xlink" width="11.385" height="13.002" viewBox="0 0 11.385 13.002">
  <defs>
    <clipPath id="clip-path">
      <rect id="Rectangle_236" data-name="Rectangle 236" width="11.385" height="13.002" fill="#3f536c"/>
    </clipPath>
  </defs>
  <g id="Group_824" data-name="Group 824" transform="translate(0 0)" clip-path="url(#clip-path)">
    <path id="Path_328" data-name="Path 328" d="M8.31,8.384A.812.812,0,0,0,7.2,8.72l-.471.891a9.355,9.355,0,0,1-2.37-2.085A9.517,9.517,0,0,1,2.846,4.736l.992-.269A.82.82,0,0,0,4.41,3.458L3.636.6A.82.82,0,0,0,2.628.029L1.064.449a.751.751,0,0,0-.4.269C-.751,2.013.173,5.593,2.745,8.838c2.639,3.295,6.018,4.993,7.548,3.766l.067-.05v-.017a1.781,1.781,0,0,0,.168-.2l.756-1.429A.812.812,0,0,0,10.949,9.8Z" transform="translate(-0.001 0)" fill="#3f536c"/>
    <path id="Path_329" data-name="Path 329" d="M11.13,17.238l.37-3.564a.18.18,0,0,0-.185-.2l-3.581.05a.184.184,0,0,0-.134.3l.723.773L6.255,16.481a.234.234,0,0,0-.017.319l1.479,1.614a.234.234,0,0,0,.319.017L10.1,16.548l.723.79a.173.173,0,0,0,.3-.1" transform="translate(-1.157 -11.207)" fill="#3f536c"/>
  </g>
</svg>
