<svg xmlns="http://www.w3.org/2000/svg" width="224.528" height="20.073" viewBox="0 0 224.528 20.073">
  <g id="sm" transform="translate(-285 -4926.251)">
    <path id="insta" d="M8.449,6.355a4.333,4.333,0,1,0,4.333,4.333A4.326,4.326,0,0,0,8.449,6.355Zm0,7.15a2.817,2.817,0,1,1,2.817-2.817A2.822,2.822,0,0,1,8.449,13.505ZM13.97,6.178a1.011,1.011,0,1,1-1.011-1.011A1.008,1.008,0,0,1,13.97,6.178ZM16.84,7.2a5,5,0,0,0-1.365-3.541A5.035,5.035,0,0,0,11.934,2.3c-1.4-.079-5.578-.079-6.973,0A5.027,5.027,0,0,0,1.419,3.659,5.018,5.018,0,0,0,.054,7.2c-.079,1.4-.079,5.578,0,6.973a5,5,0,0,0,1.365,3.541,5.041,5.041,0,0,0,3.541,1.365c1.4.079,5.578.079,6.973,0a5,5,0,0,0,3.541-1.365,5.035,5.035,0,0,0,1.365-3.541c.079-1.4.079-5.574,0-6.969Zm-1.8,8.466a2.852,2.852,0,0,1-1.607,1.607c-1.113.441-3.752.339-4.982.339s-3.873.1-4.982-.339A2.852,2.852,0,0,1,1.861,15.67c-.441-1.113-.339-3.752-.339-4.982s-.1-3.873.339-4.982A2.852,2.852,0,0,1,3.467,4.1C4.58,3.659,7.219,3.76,8.449,3.76s3.873-.1,4.982.339a2.852,2.852,0,0,1,1.607,1.607c.441,1.113.339,3.752.339,4.982S15.478,14.561,15.037,15.67Z" transform="translate(285.005 4925.475)" fill="#3f536c"/>
    <path id="twitter" d="M18.67,7.593c.013.185.013.37.013.555A12.051,12.051,0,0,1,6.549,20.281,12.052,12.052,0,0,1,0,18.367a8.822,8.822,0,0,0,1.03.053A8.541,8.541,0,0,0,6.325,16.6,4.272,4.272,0,0,1,2.337,13.64a5.378,5.378,0,0,0,.805.066,4.511,4.511,0,0,0,1.122-.145A4.265,4.265,0,0,1,.845,9.375V9.322a4.3,4.3,0,0,0,1.928.541,4.271,4.271,0,0,1-1.32-5.7,12.122,12.122,0,0,0,8.794,4.463,4.814,4.814,0,0,1-.106-.977,4.269,4.269,0,0,1,7.381-2.918A8.4,8.4,0,0,0,20.228,3.7a4.253,4.253,0,0,1-1.875,2.35,8.55,8.55,0,0,0,2.456-.66,9.168,9.168,0,0,1-2.139,2.2Z" transform="translate(326.764 4924.333)" fill="#3f536c"/>
    <path id="facebook" d="M11.656,11.291l.558-3.633H8.728V5.3a1.816,1.816,0,0,1,2.048-1.963H12.36V.245A19.325,19.325,0,0,0,9.547,0C6.677,0,4.8,1.74,4.8,4.89V7.658H1.609v3.633H4.8v8.782H8.728V11.291Z" transform="translate(370.498 4926.251)" fill="#3f536c"/>
    <path id="vimeo" d="M17.719,8.049Q17.6,10.637,14.1,15.136q-3.615,4.7-6.118,4.7-1.549,0-2.623-2.861C3.969,11.864,3.375,8.868,2.224,8.868A5.523,5.523,0,0,0,.831,9.7L0,8.627c2.042-1.793,3.993-3.787,5.215-3.9q2.071-.2,2.548,2.829c1.136,7.182,1.638,8.266,3.7,5.014a6.986,6.986,0,0,0,1.2-2.675c.19-1.816-1.417-1.694-2.5-1.227q1.306-4.279,4.994-4.159c1.812.047,2.671,1.231,2.568,3.538Z" transform="translate(407.905 4924.667)" fill="#3f536c"/>
    <path id="youtube" d="M19.189,6.538A2.328,2.328,0,0,0,17.551,4.89a55.011,55.011,0,0,0-7.238-.39,55.011,55.011,0,0,0-7.238.39A2.328,2.328,0,0,0,1.437,6.538a24.419,24.419,0,0,0-.387,4.488,24.419,24.419,0,0,0,.387,4.488,2.293,2.293,0,0,0,1.638,1.622,55.012,55.012,0,0,0,7.238.39,55.011,55.011,0,0,0,7.238-.39,2.293,2.293,0,0,0,1.638-1.622,24.419,24.419,0,0,0,.387-4.488,24.419,24.419,0,0,0-.387-4.488ZM8.418,13.781V8.272l4.842,2.755L8.418,13.781Z" transform="translate(448.619 4926.138)" fill="#3f536c"/>
    <path id="linkedin" d="M3.783,16.9H.279V5.618h3.5ZM2.029,4.079A2.039,2.039,0,1,1,4.059,2.03,2.047,2.047,0,0,1,2.029,4.079ZM16.9,16.9H13.4V11.409c0-1.309-.026-2.988-1.822-2.988-1.822,0-2.1,1.422-2.1,2.894V16.9h-3.5V5.618H9.339V7.157h.049A3.682,3.682,0,0,1,12.7,5.335c3.546,0,4.2,2.335,4.2,5.369v6.2Z" transform="translate(492.626 4927.712)" fill="#3f536c"/>
  </g>
</svg>
