<svg xmlns="http://www.w3.org/2000/svg" xmlns:xlink="http://www.w3.org/1999/xlink" width="87.5" height="39.013" viewBox="0 0 87.5 39.013">
  <defs>
    <clipPath id="clip-path">
      <rect x="10" y="12" width="87.5" height="39.013" fill="none"/>
    </clipPath>
    <clipPath id="clip-path-2">
      <rect id="Rectangle_694" data-name="Rectangle 694" width="97.5" height="57.013" fill="none"/>
    </clipPath>
  </defs>
  <g id="tb" transform="translate(-10 -12)" clip-path="url(#clip-path)" style="mix-blend-mode: normal;isolation: isolate">
    <g id="Group_847" data-name="Group 847">
      <g id="Group_846" data-name="Group 846" clip-path="url(#clip-path-2)">
        <path id="Path_520" data-name="Path 520" d="M216.326,105.228A3.787,3.787,0,0,1,215.184,108a3.749,3.749,0,0,1-2.761,1.149A3.8,3.8,0,0,1,209.646,108a3.76,3.76,0,0,1-1.157-2.769V99.983a1.311,1.311,0,0,1,2.622,0v1.342h1.3a3.787,3.787,0,0,1,2.769,1.142,3.75,3.75,0,0,1,1.15,2.761m-2.623,0a1.263,1.263,0,0,0-1.281-1.281h-1.311v1.281a1.318,1.318,0,0,0,1.3,1.3,1.23,1.23,0,0,0,.9-.378,1.248,1.248,0,0,0,.378-.917Z" transform="translate(-152.222 -72.042)" fill="#004cac"/>
        <path id="Path_521" data-name="Path 521" d="M247.762,112.364a3.918,3.918,0,0,1-7.836,0v-2.607a1.311,1.311,0,0,1,2.622,0v2.607a1.318,1.318,0,0,0,1.3,1.3,1.229,1.229,0,0,0,.9-.378,1.246,1.246,0,0,0,.378-.917v-2.592a1.317,1.317,0,0,1,1.311-1.311,1.288,1.288,0,0,1,.933.386,1.249,1.249,0,0,1,.393.925Z" transform="translate(-175.175 -79.179)" fill="#004cac"/>
        <path id="Path_522" data-name="Path 522" d="M279.555,105.271a3.932,3.932,0,1,1-3.933-3.9H276.9v-1.327a1.317,1.317,0,0,1,1.311-1.311,1.314,1.314,0,0,1,.941.386,1.238,1.238,0,0,1,.4.925Zm-2.638-1.281h-1.28a1.278,1.278,0,0,0-.926.378,1.221,1.221,0,0,0-.386.9,1.318,1.318,0,0,0,1.3,1.3,1.231,1.231,0,0,0,.9-.378,1.249,1.249,0,0,0,.378-.918Z" transform="translate(-198.376 -72.085)" fill="#004cac"/>
        <path id="Path_523" data-name="Path 523" d="M311.378,112.364a3.918,3.918,0,0,1-7.837,0v-2.607a1.311,1.311,0,0,1,2.623,0v2.607a1.317,1.317,0,0,0,1.3,1.3,1.228,1.228,0,0,0,.9-.378,1.248,1.248,0,0,0,.378-.917v-2.592a1.316,1.316,0,0,1,1.311-1.311,1.288,1.288,0,0,1,.933.386,1.247,1.247,0,0,1,.393.925Z" transform="translate(-221.621 -79.179)" fill="#004cac"/>
        <path id="Path_524" data-name="Path 524" d="M341.867,109.758a1.316,1.316,0,0,1-1.311,1.311h-1.929a1.257,1.257,0,0,0-.91.378,1.233,1.233,0,0,0-.385.918v2.607a1.317,1.317,0,0,1-1.312,1.311,1.287,1.287,0,0,1-.933-.386,1.247,1.247,0,0,1-.393-.926v-2.607a3.923,3.923,0,0,1,3.918-3.918h1.928a1.292,1.292,0,0,1,.934.385,1.25,1.25,0,0,1,.393.926" transform="translate(-244.367 -79.179)" fill="#004cac"/>
        <path id="Path_525" data-name="Path 525" d="M211.127,163.009a1.316,1.316,0,0,1-1.311,1.311,1.289,1.289,0,0,1-.934-.386,1.248,1.248,0,0,1-.393-.925A1.316,1.316,0,0,1,209.8,161.7a1.288,1.288,0,0,1,.933.385,1.249,1.249,0,0,1,.393.926" transform="translate(-152.222 -118.059)" fill="#004cac"/>
        <path id="Path_526" data-name="Path 526" d="M228.209,148.944a1.317,1.317,0,0,1-1.311,1.311h-2.53a3.8,3.8,0,0,1-2.777-1.149,3.9,3.9,0,0,1,2.761-6.672h2.529a1.289,1.289,0,0,1,.934.386,1.25,1.25,0,0,1,.393.925,1.317,1.317,0,0,1-1.311,1.312h-2.53a1.276,1.276,0,0,0-.925.378,1.22,1.22,0,0,0-.385.9,1.317,1.317,0,0,0,1.3,1.3h2.529a1.289,1.289,0,0,1,.934.385,1.25,1.25,0,0,1,.393.926" transform="translate(-160.943 -103.994)" fill="#004cac"/>
        <path id="Path_527" data-name="Path 527" d="M259,146.337a3.787,3.787,0,0,1-1.142,2.769A3.919,3.919,0,1,1,259,146.337m-2.623,0a1.264,1.264,0,0,0-1.28-1.28,1.25,1.25,0,0,0-.918.378,1.232,1.232,0,0,0-.378.9,1.318,1.318,0,0,0,1.3,1.3,1.232,1.232,0,0,0,.9-.378,1.25,1.25,0,0,0,.378-.918" transform="translate(-183.394 -103.994)" fill="#004cac"/>
        <path id="Path_528" data-name="Path 528" d="M295.672,148.9a1.311,1.311,0,0,1-2.623,0V146.3a1.291,1.291,0,0,0-1.3-1.3,1.232,1.232,0,0,0-.9.378,1.249,1.249,0,0,0-.378.918v2.592a1.32,1.32,0,0,1-2.252.941,1.26,1.26,0,0,1-.385-.925V146.3a1.25,1.25,0,0,0-.378-.918,1.233,1.233,0,0,0-.9-.378,1.259,1.259,0,0,0-.91.378,1.236,1.236,0,0,0-.385.918v2.592a1.317,1.317,0,0,1-1.311,1.311,1.286,1.286,0,0,1-.933-.386,1.249,1.249,0,0,1-.393-.925V146.3a3.91,3.91,0,0,1,6.525-2.915,3.712,3.712,0,0,1,2.592-1,3.937,3.937,0,0,1,3.934,3.918Z" transform="translate(-206.348 -103.952)" fill="#004cac"/>
        <path id="Path_529" data-name="Path 529" d="M220.585,65.823a1.317,1.317,0,0,1-1.311,1.311h-.324a3.8,3.8,0,0,1-2.777-1.149,3.762,3.762,0,0,1-1.157-2.768v-5.23a1.25,1.25,0,0,1,.393-.925,1.289,1.289,0,0,1,.933-.386,1.317,1.317,0,0,1,1.311,1.311V59.3h1.62a1.311,1.311,0,0,1,0,2.623h-1.635v1.3a1.318,1.318,0,0,0,1.3,1.3h.34a1.317,1.317,0,0,1,1.311,1.311" transform="translate(-156.987 -41.38)" fill="#004cac"/>
        <path id="Path_530" data-name="Path 530" d="M243.9,72.96a1.318,1.318,0,0,1-1.312,1.311h-2.607a3.91,3.91,0,1,1,2.761-6.679,3.736,3.736,0,0,1,1.157,2.761Zm-2.623-2.607a1.235,1.235,0,0,0-.378-.9,1.3,1.3,0,0,0-1.835,0,1.234,1.234,0,0,0-.378.9,1.25,1.25,0,0,0,.378.918,1.233,1.233,0,0,0,.9.378h1.3Z" transform="translate(-172.356 -48.516)" fill="#004cac"/>
        <path id="Path_531" data-name="Path 531" d="M275.514,65.823a1.317,1.317,0,0,1-1.312,1.311h-.324a3.8,3.8,0,0,1-2.777-1.149,3.761,3.761,0,0,1-1.157-2.768v-5.23a1.251,1.251,0,0,1,.393-.925,1.289,1.289,0,0,1,.934-.386,1.317,1.317,0,0,1,1.311,1.311V59.3H274.2a1.311,1.311,0,0,1,0,2.623h-1.635v1.3a1.318,1.318,0,0,0,1.3,1.3h.339a1.317,1.317,0,0,1,1.312,1.311" transform="translate(-197.092 -41.38)" fill="#004cac"/>
        <path id="Path_532" data-name="Path 532" d="M295.674,57.929a1.316,1.316,0,0,1-1.311,1.312,1.288,1.288,0,0,1-.933-.386,1.307,1.307,0,0,1,.918-2.237,1.29,1.29,0,0,1,.933.385,1.252,1.252,0,0,1,.393.926m0,7.852a1.316,1.316,0,0,1-1.311,1.311,1.287,1.287,0,0,1-.933-.386,1.25,1.25,0,0,1-.393-.925V61.523a1.317,1.317,0,0,1,1.311-1.311,1.289,1.289,0,0,1,.933.386,1.25,1.25,0,0,1,.393.925Z" transform="translate(-213.952 -41.338)" fill="#004cac"/>
        <path id="Path_533" data-name="Path 533" d="M309.318,65.781a1.311,1.311,0,0,1-2.623,0V57.929a1.311,1.311,0,0,1,2.623,0Z" transform="translate(-223.924 -41.338)" fill="#004cac"/>
        <path id="Path_534" data-name="Path 534" d="M214.478,64.391h-.34a1.316,1.316,0,0,1-1.294-1.294V61.8h1.634a1.31,1.31,0,0,0,0-2.62H212.86v-1.31a1.316,1.316,0,0,0-1.31-1.309,1.285,1.285,0,0,0-.932.386,1.248,1.248,0,0,0-.393.924v1.233H209.8a1.31,1.31,0,0,0,0,2.619h.427V63.1a3.757,3.757,0,0,0,1.155,2.765,3.8,3.8,0,0,0,2.773,1.148h.324a1.31,1.31,0,0,0,0-2.619" transform="translate(-152.222 -41.298)" fill="#004cac"/>
        <path id="Path_535" data-name="Path 535" d="M269.624,64.391h-.339A1.316,1.316,0,0,1,267.99,63.1V61.8h1.634a1.31,1.31,0,0,0,0-2.62h-1.618v-1.31a1.316,1.316,0,0,0-1.31-1.309,1.286,1.286,0,0,0-.932.386,1.248,1.248,0,0,0-.392.924v1.233h-.427a1.31,1.31,0,0,0,0,2.619h.427V63.1a3.755,3.755,0,0,0,1.156,2.765,3.8,3.8,0,0,0,2.773,1.148h.324a1.31,1.31,0,0,0,0-2.619" transform="translate(-192.485 -41.298)" fill="#004cac"/>
      </g>
    </g>
  </g>
</svg>
