<svg id="tur" xmlns="http://www.w3.org/2000/svg" xmlns:xlink="http://www.w3.org/1999/xlink" width="11.308" height="16.979" viewBox="0 0 11.308 16.979">
  <defs>
    <clipPath id="clip-path">
      <rect id="Rectangle_204" data-name="Rectangle 204" width="11.308" height="16.979" fill="#3f536c"/>
    </clipPath>
  </defs>
  <g id="Group_724" data-name="Group 724" clip-path="url(#clip-path)">
    <path id="Path_297" data-name="Path 297" d="M7.678,15.321a1.75,1.75,0,0,0,1.745-1.745V4.851A1.75,1.75,0,0,0,7.678,3.106H1.745A1.75,1.75,0,0,0,0,4.851v8.725a1.75,1.75,0,0,0,1.745,1.745ZM4.467,1.134A.432.432,0,0,1,4.9.7H5.9a.432.432,0,0,1,.436.436V2.426h.7V1.134A1.132,1.132,0,0,0,5.9,0H4.9A1.132,1.132,0,0,0,3.769,1.134V2.426h.7Zm5.1,1.972H9.353a2.465,2.465,0,0,1,.768,1.78v8.673a2.465,2.465,0,0,1-.768,1.78h.209a1.75,1.75,0,0,0,1.745-1.745V4.869A1.754,1.754,0,0,0,9.563,3.106M7.94,16.979a.994.994,0,0,0,.995-.995H6.945a.983.983,0,0,0,.995.995m-5.235,0a.994.994,0,0,0,.995-.995H1.71a.994.994,0,0,0,.995.995" fill="#3f536c"/>
    <path id="Path_298" data-name="Path 298" d="M12.736,29.346a.464.464,0,0,1-.475-.475v-.253a.428.428,0,0,0-.428-.428H7.2a.428.428,0,0,0-.427.428v.253a.475.475,0,0,1-.95,0v-.253A1.379,1.379,0,0,1,7.2,27.24h4.638a1.379,1.379,0,0,1,1.377,1.377v.253a.464.464,0,0,1-.475.475" transform="translate(-4.803 -22.487)" fill="#3f536c"/>
    <path id="Path_299" data-name="Path 299" d="M12.736,56.379a.464.464,0,0,1-.475-.475v-.253a.428.428,0,0,0-.428-.427H7.2a.428.428,0,0,0-.427.427V55.9a.475.475,0,0,1-.95,0v-.253A1.379,1.379,0,0,1,7.2,54.274h4.638a1.379,1.379,0,0,1,1.377,1.377V55.9a.464.464,0,0,1-.475.475" transform="translate(-4.803 -44.803)" fill="#3f536c"/>
  </g>
</svg>
