<svg xmlns="http://www.w3.org/2000/svg" width="20.809" height="16.901" viewBox="0 0 20.809 16.901">
  <path id="twitter" d="M18.67,7.593c.013.185.013.37.013.555A12.051,12.051,0,0,1,6.549,20.281,12.052,12.052,0,0,1,0,18.367a8.822,8.822,0,0,0,1.03.053A8.541,8.541,0,0,0,6.325,16.6,4.272,4.272,0,0,1,2.337,13.64a5.378,5.378,0,0,0,.805.066,4.511,4.511,0,0,0,1.122-.145A4.265,4.265,0,0,1,.845,9.375V9.322a4.3,4.3,0,0,0,1.928.541,4.271,4.271,0,0,1-1.32-5.7,12.122,12.122,0,0,0,8.794,4.463,4.814,4.814,0,0,1-.106-.977,4.269,4.269,0,0,1,7.381-2.918A8.4,8.4,0,0,0,20.228,3.7a4.253,4.253,0,0,1-1.875,2.35,8.55,8.55,0,0,0,2.456-.66,9.168,9.168,0,0,1-2.139,2.2Z" transform="translate(0 -3.381)" fill="#3f536c"/>
</svg>
