<svg xmlns="http://www.w3.org/2000/svg" width="17.728" height="15.329" viewBox="0 0 17.728 15.329">
  <path id="vimeo" d="M17.719,8.049Q17.6,10.637,14.1,15.136q-3.615,4.7-6.118,4.7-1.549,0-2.623-2.861C3.969,11.864,3.375,8.868,2.224,8.868A5.523,5.523,0,0,0,.831,9.7L0,8.627c2.042-1.793,3.993-3.787,5.215-3.9q2.071-.2,2.548,2.829c1.136,7.182,1.638,8.266,3.7,5.014a6.986,6.986,0,0,0,1.2-2.675c.19-1.816-1.417-1.694-2.5-1.227q1.306-4.279,4.994-4.159c1.812.047,2.671,1.231,2.568,3.538Z" transform="translate(0 -4.508)" fill="#3f536c"/>
</svg>
