<svg xmlns="http://www.w3.org/2000/svg" width="18.526" height="13.026" viewBox="0 0 18.526 13.026">
  <path id="youtube" d="M19.189,6.538A2.328,2.328,0,0,0,17.551,4.89a55.011,55.011,0,0,0-7.238-.39,55.011,55.011,0,0,0-7.238.39A2.328,2.328,0,0,0,1.437,6.538a24.419,24.419,0,0,0-.387,4.488,24.419,24.419,0,0,0,.387,4.488,2.293,2.293,0,0,0,1.638,1.622,55.012,55.012,0,0,0,7.238.39,55.011,55.011,0,0,0,7.238-.39,2.293,2.293,0,0,0,1.638-1.622,24.419,24.419,0,0,0,.387-4.488,24.419,24.419,0,0,0-.387-4.488ZM8.418,13.781V8.272l4.842,2.755L8.418,13.781Z" transform="translate(-1.05 -4.5)" fill="#3f536c"/>
</svg>
